<?xml version="1.0" encoding="utf-8" standalone="no"?>
<!DOCTYPE svg PUBLIC "-//W3C//DTD SVG 1.1//EN"
  "http://www.w3.org/Graphics/SVG/1.1/DTD/svg11.dtd">
<svg xmlns:xlink="http://www.w3.org/1999/xlink" width="288pt" height="216pt" viewBox="0 0 288 216" xmlns="http://www.w3.org/2000/svg" version="1.1">
 <metadata>
  <rdf:RDF xmlns:dc="http://purl.org/dc/elements/1.1/" xmlns:cc="http://creativecommons.org/ns#" xmlns:rdf="http://www.w3.org/1999/02/22-rdf-syntax-ns#">
   <cc:Work>
    <dc:type rdf:resource="http://purl.org/dc/dcmitype/StillImage"/>
    <dc:date>2025-03-07T09:51:06.800641</dc:date>
    <dc:format>image/svg+xml</dc:format>
    <dc:creator>
     <cc:Agent>
      <dc:title>Matplotlib v3.9.1, https://matplotlib.org/</dc:title>
     </cc:Agent>
    </dc:creator>
   </cc:Work>
  </rdf:RDF>
 </metadata>
 <defs>
  <style type="text/css">*{stroke-linejoin: round; stroke-linecap: butt}</style>
 </defs>
 <g id="figure_1">
  <g id="patch_1">
   <path d="M 0 216 
L 288 216 
L 288 0 
L 0 0 
z
" style="fill: #ffffff"/>
  </g>
  <g id="axes_1">
   <g id="patch_2">
    <path d="M 53.74375 174.84375 
L 277.2 174.84375 
L 277.2 10.8 
L 53.74375 10.8 
z
" style="fill: #ffffff"/>
   </g>
   <g id="PolyCollection_1">
    <defs>
     <path id="m7195e7d7c5" d="M 63.900852 -79.959176 
L 63.900852 -78.223527 
L 65.500396 -83.719548 
L 67.09994 -81.437052 
L 68.699483 -84.577227 
L 70.299027 -83.050508 
L 71.898571 -82.329994 
L 73.498114 -82.783619 
L 75.097658 -83.135438 
L 76.697202 -84.26627 
L 78.296745 -87.103859 
L 79.896289 -83.422142 
L 81.495833 -83.84217 
L 83.095376 -89.38313 
L 84.69492 -87.818093 
L 86.294464 -89.883346 
L 87.894007 -85.878828 
L 89.493551 -84.889455 
L 91.093095 -86.774527 
L 92.692638 -81.689707 
L 94.292182 -86.813674 
L 95.891726 -81.479707 
L 97.491269 -82.563462 
L 99.090813 -81.506896 
L 100.690357 -82.077352 
L 102.2899 -83.011329 
L 103.889444 -79.210615 
L 105.488988 -80.719801 
L 107.088531 -76.786356 
L 108.688075 -79.808095 
L 110.287619 -80.51908 
L 111.887162 -84.800233 
L 113.486706 -80.835994 
L 115.08625 -86.130207 
L 116.685793 -85.74743 
L 118.285337 -87.488883 
L 119.884881 -88.530816 
L 121.484424 -94.977893 
L 123.083968 -93.456864 
L 124.683512 -102.048626 
L 126.283055 -100.453143 
L 127.882599 -104.808621 
L 129.482143 -106.012965 
L 131.081686 -109.351645 
L 132.68123 -111.565813 
L 134.280774 -117.308989 
L 135.880317 -117.655424 
L 137.479861 -117.817654 
L 139.079405 -117.168739 
L 140.678948 -121.597764 
L 142.278492 -125.707516 
L 143.878036 -115.888102 
L 145.477579 -122.296162 
L 147.077123 -125.33266 
L 148.676667 -124.080072 
L 150.27621 -120.457378 
L 151.875754 -121.397035 
L 153.475298 -123.847965 
L 155.074841 -122.377613 
L 156.674385 -119.739636 
L 158.273929 -121.483793 
L 159.873472 -118.277604 
L 161.473016 -118.806419 
L 163.07256 -117.242893 
L 164.672103 -116.862706 
L 166.271647 -134.609369 
L 167.87119 -148.577146 
L 169.470734 -159.956191 
L 171.070278 -169.477181 
L 172.669821 -165.909334 
L 174.269365 -158.367482 
L 175.868909 -148.640461 
L 177.468452 -150.601529 
L 179.067996 -142.103769 
L 180.66754 -133.312968 
L 182.267083 -127.710826 
L 183.866627 -118.513081 
L 185.466171 -107.250147 
L 187.065714 -102.776791 
L 188.665258 -106.906336 
L 190.264802 -103.065094 
L 191.864345 -100.923798 
L 193.463889 -105.806833 
L 195.063433 -104.105176 
L 196.662976 -99.984958 
L 198.26252 -104.181865 
L 199.862064 -104.916979 
L 201.461607 -109.585578 
L 203.061151 -108.53388 
L 204.660695 -109.114688 
L 206.260238 -101.743711 
L 207.859782 -99.420561 
L 209.459326 -103.601148 
L 211.058869 -102.938515 
L 212.658413 -103.406805 
L 214.257957 -104.668084 
L 215.8575 -102.062962 
L 217.457044 -103.815272 
L 219.056588 -104.724296 
L 220.656131 -103.233493 
L 222.255675 -104.290982 
L 223.855219 -100.140891 
L 225.454762 -101.751878 
L 227.054306 -96.876863 
L 228.65385 -100.342202 
L 230.253393 -103.367118 
L 231.852937 -100.507998 
L 233.452481 -102.265126 
L 235.052024 -100.835804 
L 236.651568 -98.578528 
L 238.251112 -92.82527 
L 239.850655 -91.512895 
L 241.450199 -89.401618 
L 243.049743 -89.168042 
L 244.649286 -89.651968 
L 246.24883 -84.646785 
L 247.848374 -84.500306 
L 249.447917 -85.012259 
L 251.047461 -85.577756 
L 252.647005 -82.56322 
L 254.246548 -82.017249 
L 255.846092 -75.579633 
L 257.445636 -78.977505 
L 259.045179 -78.272515 
L 260.644723 -71.859586 
L 262.244267 -71.628541 
L 263.84381 -68.531413 
L 265.443354 -69.040073 
L 267.042898 -70.122452 
L 267.042898 -71.947167 
L 267.042898 -71.947167 
L 265.443354 -70.748463 
L 263.84381 -70.293421 
L 262.244267 -73.439613 
L 260.644723 -73.682052 
L 259.045179 -80.110631 
L 257.445636 -80.851698 
L 255.846092 -77.320507 
L 254.246548 -83.931326 
L 252.647005 -84.428111 
L 251.047461 -87.498073 
L 249.447917 -86.87025 
L 247.848374 -86.296553 
L 246.24883 -86.488981 
L 244.649286 -91.529429 
L 243.049743 -91.029605 
L 241.450199 -91.362382 
L 239.850655 -93.423911 
L 238.251112 -94.776876 
L 236.651568 -100.602765 
L 235.052024 -102.801592 
L 233.452481 -104.488846 
L 231.852937 -102.539029 
L 230.253393 -105.438495 
L 228.65385 -102.323104 
L 227.054306 -99.026619 
L 225.454762 -103.801493 
L 223.855219 -102.159585 
L 222.255675 -106.364207 
L 220.656131 -105.313812 
L 219.056588 -106.947574 
L 217.457044 -105.856239 
L 215.8575 -104.141705 
L 214.257957 -106.769311 
L 212.658413 -105.519185 
L 211.058869 -105.044233 
L 209.459326 -105.766013 
L 207.859782 -101.485436 
L 206.260238 -103.790745 
L 204.660695 -111.259226 
L 203.061151 -110.653011 
L 201.461607 -111.753636 
L 199.862064 -107.091573 
L 198.26252 -106.259993 
L 196.662976 -101.970149 
L 195.063433 -106.160411 
L 193.463889 -107.964853 
L 191.864345 -103.026921 
L 190.264802 -105.176401 
L 188.665258 -109.030426 
L 187.065714 -104.902144 
L 185.466171 -109.558013 
L 183.866627 -120.807683 
L 182.267083 -130.183567 
L 180.66754 -135.862303 
L 179.067996 -144.868542 
L 177.468452 -153.584841 
L 175.868909 -151.625096 
L 174.269365 -161.45523 
L 172.669821 -169.14817 
L 171.070278 -172.875779 
L 169.470734 -163.181803 
L 167.87119 -151.504743 
L 166.271647 -137.186704 
L 164.672103 -119.133229 
L 163.07256 -119.455665 
L 161.473016 -121.080989 
L 159.873472 -120.577084 
L 158.273929 -123.773647 
L 156.674385 -122.012154 
L 155.074841 -124.707435 
L 153.475298 -126.158661 
L 151.875754 -123.693726 
L 150.27621 -122.750427 
L 148.676667 -126.459595 
L 147.077123 -127.672253 
L 145.477579 -124.635873 
L 143.878036 -118.087009 
L 142.278492 -128.011554 
L 140.678948 -123.887247 
L 139.079405 -119.415083 
L 137.479861 -120.105873 
L 135.880317 -119.921104 
L 134.280774 -119.566091 
L 132.68123 -113.752581 
L 131.081686 -111.533252 
L 129.482143 -108.086724 
L 127.882599 -106.857437 
L 126.283055 -102.520678 
L 124.683512 -104.100809 
L 123.083968 -95.45562 
L 121.484424 -97.011027 
L 119.884881 -90.489494 
L 118.285337 -89.377383 
L 116.685793 -87.687291 
L 115.08625 -87.992534 
L 113.486706 -82.680777 
L 111.887162 -86.649664 
L 110.287619 -82.303483 
L 108.688075 -81.563007 
L 107.088531 -78.507323 
L 105.488988 -82.511002 
L 103.889444 -81.010609 
L 102.2899 -84.852823 
L 100.690357 -83.876978 
L 99.090813 -83.264615 
L 97.491269 -84.388965 
L 95.891726 -83.287339 
L 94.292182 -88.650267 
L 92.692638 -83.538187 
L 91.093095 -88.582691 
L 89.493551 -86.747271 
L 87.894007 -87.674466 
L 86.294464 -91.808505 
L 84.69492 -89.732941 
L 83.095376 -91.325021 
L 81.495833 -85.713168 
L 79.896289 -85.365738 
L 78.296745 -89.020969 
L 76.697202 -86.054262 
L 75.097658 -84.983906 
L 73.498114 -84.595953 
L 71.898571 -84.199872 
L 70.299027 -84.832497 
L 68.699483 -86.452375 
L 67.09994 -83.254594 
L 65.500396 -85.60675 
L 63.900852 -79.959176 
z
" style="stroke: #1f77b4; stroke-opacity: 0.2"/>
    </defs>
    <g clip-path="url(#pe4831b7f31)">
     <use xlink:href="#m7195e7d7c5" x="0" y="216" style="fill: #1f77b4; fill-opacity: 0.2; stroke: #1f77b4; stroke-opacity: 0.2"/>
    </g>
   </g>
   <g id="PolyCollection_2">
    <defs>
     <path id="m102547fa5f" d="M 63.900852 -56.698649 
L 63.900852 -55.36807 
L 65.500396 -50.85692 
L 67.09994 -52.735114 
L 68.699483 -52.630447 
L 70.299027 -51.449146 
L 71.898571 -55.656444 
L 73.498114 -53.610103 
L 75.097658 -53.776495 
L 76.697202 -57.655339 
L 78.296745 -56.69647 
L 79.896289 -59.678047 
L 81.495833 -57.025884 
L 83.095376 -55.331736 
L 84.69492 -60.440831 
L 86.294464 -60.480639 
L 87.894007 -59.523797 
L 89.493551 -58.506316 
L 91.093095 -57.866875 
L 92.692638 -58.041806 
L 94.292182 -58.980034 
L 95.891726 -65.837197 
L 97.491269 -60.410208 
L 99.090813 -61.844287 
L 100.690357 -60.740932 
L 102.2899 -61.513252 
L 103.889444 -58.43716 
L 105.488988 -56.909477 
L 107.088531 -54.88003 
L 108.688075 -56.098584 
L 110.287619 -55.117237 
L 111.887162 -57.186216 
L 113.486706 -54.387871 
L 115.08625 -55.549154 
L 116.685793 -53.275134 
L 118.285337 -55.194321 
L 119.884881 -57.362189 
L 121.484424 -51.721406 
L 123.083968 -54.155155 
L 124.683512 -53.236881 
L 126.283055 -54.933208 
L 127.882599 -59.376649 
L 129.482143 -58.30567 
L 131.081686 -59.197861 
L 132.68123 -58.893211 
L 134.280774 -56.539676 
L 135.880317 -59.143601 
L 137.479861 -60.147233 
L 139.079405 -62.249663 
L 140.678948 -61.751008 
L 142.278492 -63.915142 
L 143.878036 -64.611367 
L 145.477579 -62.95528 
L 147.077123 -63.252099 
L 148.676667 -61.469987 
L 150.27621 -66.846361 
L 151.875754 -62.111441 
L 153.475298 -61.537898 
L 155.074841 -66.448058 
L 156.674385 -65.786161 
L 158.273929 -69.519418 
L 159.873472 -73.155409 
L 161.473016 -67.281297 
L 163.07256 -75.007536 
L 164.672103 -75.686172 
L 166.271647 -88.51704 
L 167.87119 -93.783545 
L 169.470734 -104.497451 
L 171.070278 -111.432992 
L 172.669821 -113.882963 
L 174.269365 -114.817318 
L 175.868909 -111.790199 
L 177.468452 -104.468084 
L 179.067996 -99.20876 
L 180.66754 -97.600931 
L 182.267083 -94.866857 
L 183.866627 -91.102563 
L 185.466171 -88.927236 
L 187.065714 -86.014363 
L 188.665258 -83.893444 
L 190.264802 -79.20473 
L 191.864345 -76.957165 
L 193.463889 -77.990602 
L 195.063433 -75.01792 
L 196.662976 -74.595058 
L 198.26252 -73.552926 
L 199.862064 -72.026741 
L 201.461607 -70.879622 
L 203.061151 -67.643397 
L 204.660695 -70.706064 
L 206.260238 -65.449658 
L 207.859782 -66.662575 
L 209.459326 -68.53191 
L 211.058869 -66.470054 
L 212.658413 -65.672172 
L 214.257957 -68.472424 
L 215.8575 -67.109837 
L 217.457044 -64.349095 
L 219.056588 -71.279918 
L 220.656131 -66.069009 
L 222.255675 -66.334514 
L 223.855219 -61.267922 
L 225.454762 -58.065672 
L 227.054306 -55.504908 
L 228.65385 -55.872996 
L 230.253393 -54.642904 
L 231.852937 -54.477327 
L 233.452481 -55.357492 
L 235.052024 -54.205494 
L 236.651568 -52.85368 
L 238.251112 -56.299519 
L 239.850655 -57.070573 
L 241.450199 -48.986348 
L 243.049743 -55.430921 
L 244.649286 -51.806187 
L 246.24883 -48.612784 
L 247.848374 -52.615165 
L 249.447917 -54.992518 
L 251.047461 -53.225918 
L 252.647005 -54.724287 
L 254.246548 -54.584496 
L 255.846092 -54.022443 
L 257.445636 -52.777223 
L 259.045179 -52.854629 
L 260.644723 -54.812546 
L 262.244267 -55.708661 
L 263.84381 -56.125013 
L 265.443354 -54.077731 
L 267.042898 -56.475036 
L 267.042898 -57.820245 
L 267.042898 -57.820245 
L 265.443354 -55.475365 
L 263.84381 -57.551225 
L 262.244267 -57.081338 
L 260.644723 -56.259043 
L 259.045179 -54.171551 
L 257.445636 -54.158239 
L 255.846092 -55.364848 
L 254.246548 -55.930111 
L 252.647005 -56.140317 
L 251.047461 -54.671725 
L 249.447917 -56.473518 
L 247.848374 -53.965209 
L 246.24883 -49.920771 
L 244.649286 -53.12496 
L 243.049743 -56.737564 
L 241.450199 -50.361089 
L 239.850655 -58.470574 
L 238.251112 -57.630182 
L 236.651568 -54.21013 
L 235.052024 -55.567848 
L 233.452481 -56.722592 
L 231.852937 -55.840448 
L 230.253393 -55.948328 
L 228.65385 -57.248699 
L 227.054306 -56.805551 
L 225.454762 -59.42811 
L 223.855219 -62.607267 
L 222.255675 -67.745957 
L 220.656131 -67.467734 
L 219.056588 -72.663054 
L 217.457044 -65.767124 
L 215.8575 -68.511089 
L 214.257957 -69.859326 
L 212.658413 -67.118244 
L 211.058869 -67.838158 
L 209.459326 -69.935305 
L 207.859782 -68.104075 
L 206.260238 -66.851072 
L 204.660695 -72.190198 
L 203.061151 -69.050285 
L 201.461607 -72.355818 
L 199.862064 -73.445395 
L 198.26252 -75.049762 
L 196.662976 -76.019855 
L 195.063433 -76.550508 
L 193.463889 -79.416156 
L 191.864345 -78.492809 
L 190.264802 -80.79216 
L 188.665258 -85.548208 
L 187.065714 -87.607731 
L 185.466171 -90.657899 
L 183.866627 -92.812485 
L 182.267083 -96.674041 
L 180.66754 -99.388014 
L 179.067996 -101.062743 
L 177.468452 -106.3455 
L 175.868909 -113.787551 
L 174.269365 -116.958925 
L 172.669821 -115.922736 
L 171.070278 -113.456931 
L 169.470734 -106.408541 
L 167.87119 -95.526655 
L 166.271647 -90.185046 
L 164.672103 -77.1853 
L 163.07256 -76.545564 
L 161.473016 -68.727305 
L 159.873472 -74.60579 
L 158.273929 -70.93876 
L 156.674385 -67.143648 
L 155.074841 -67.873301 
L 153.475298 -62.896193 
L 151.875754 -63.518689 
L 150.27621 -68.294966 
L 148.676667 -62.804925 
L 147.077123 -64.644249 
L 145.477579 -64.328667 
L 143.878036 -65.959526 
L 142.278492 -65.269395 
L 140.678948 -63.140311 
L 139.079405 -63.639502 
L 137.479861 -61.579604 
L 135.880317 -60.527377 
L 134.280774 -57.851735 
L 132.68123 -60.228166 
L 131.081686 -60.465476 
L 129.482143 -59.673105 
L 127.882599 -60.765333 
L 126.283055 -56.323218 
L 124.683512 -54.596982 
L 123.083968 -55.477441 
L 121.484424 -52.996296 
L 119.884881 -58.66358 
L 118.285337 -56.595303 
L 116.685793 -54.67275 
L 115.08625 -56.963847 
L 113.486706 -55.742306 
L 111.887162 -58.502282 
L 110.287619 -56.490964 
L 108.688075 -57.449711 
L 107.088531 -56.304177 
L 105.488988 -58.268046 
L 103.889444 -59.749725 
L 102.2899 -62.813828 
L 100.690357 -62.058367 
L 99.090813 -63.205429 
L 97.491269 -61.863428 
L 95.891726 -67.207789 
L 94.292182 -60.366928 
L 92.692638 -59.416736 
L 91.093095 -59.220796 
L 89.493551 -59.867957 
L 87.894007 -60.8579 
L 86.294464 -61.86025 
L 84.69492 -61.73384 
L 83.095376 -56.662615 
L 81.495833 -58.347185 
L 79.896289 -61.022736 
L 78.296745 -58.045536 
L 76.697202 -58.985873 
L 75.097658 -55.148636 
L 73.498114 -54.979189 
L 71.898571 -57.012374 
L 70.299027 -52.813232 
L 68.699483 -54.001877 
L 67.09994 -54.110746 
L 65.500396 -52.296872 
L 63.900852 -56.698649 
z
" style="stroke: #aec7e8; stroke-opacity: 0.2"/>
    </defs>
    <g clip-path="url(#pe4831b7f31)">
     <use xlink:href="#m102547fa5f" x="0" y="216" style="fill: #aec7e8; fill-opacity: 0.2; stroke: #aec7e8; stroke-opacity: 0.2"/>
    </g>
   </g>
   <g id="PolyCollection_3">
    <defs>
     <path id="m1c95fb7bba" d="M 63.900852 -57.532571 
L 63.900852 -56.224473 
L 65.500396 -57.507766 
L 67.09994 -57.496957 
L 68.699483 -54.492925 
L 70.299027 -55.985557 
L 71.898571 -58.351807 
L 73.498114 -57.861887 
L 75.097658 -56.486082 
L 76.697202 -54.46854 
L 78.296745 -58.517151 
L 79.896289 -57.167398 
L 81.495833 -57.194218 
L 83.095376 -54.260471 
L 84.69492 -57.215891 
L 86.294464 -60.122834 
L 87.894007 -60.826777 
L 89.493551 -57.228627 
L 91.093095 -55.489224 
L 92.692638 -53.828582 
L 94.292182 -53.472947 
L 95.891726 -55.134958 
L 97.491269 -54.965776 
L 99.090813 -59.30153 
L 100.690357 -56.035057 
L 102.2899 -60.853181 
L 103.889444 -56.608683 
L 105.488988 -59.781243 
L 107.088531 -58.740787 
L 108.688075 -55.393392 
L 110.287619 -59.103332 
L 111.887162 -62.774717 
L 113.486706 -64.624774 
L 115.08625 -62.928364 
L 116.685793 -62.794439 
L 118.285337 -59.051429 
L 119.884881 -63.161776 
L 121.484424 -62.724114 
L 123.083968 -61.792624 
L 124.683512 -66.539754 
L 126.283055 -64.907293 
L 127.882599 -67.192191 
L 129.482143 -61.0518 
L 131.081686 -65.793472 
L 132.68123 -63.736354 
L 134.280774 -66.865036 
L 135.880317 -71.059381 
L 137.479861 -66.650345 
L 139.079405 -71.68284 
L 140.678948 -72.672243 
L 142.278492 -74.679989 
L 143.878036 -76.416939 
L 145.477579 -78.019715 
L 147.077123 -78.58988 
L 148.676667 -82.145694 
L 150.27621 -84.21885 
L 151.875754 -85.869783 
L 153.475298 -91.339946 
L 155.074841 -96.076395 
L 156.674385 -97.479388 
L 158.273929 -101.934222 
L 159.873472 -103.064212 
L 161.473016 -105.743546 
L 163.07256 -105.297553 
L 164.672103 -109.179793 
L 166.271647 -115.92375 
L 167.87119 -116.452356 
L 169.470734 -116.74409 
L 171.070278 -124.312154 
L 172.669821 -126.336676 
L 174.269365 -131.249935 
L 175.868909 -132.47641 
L 177.468452 -131.728767 
L 179.067996 -130.19033 
L 180.66754 -131.033154 
L 182.267083 -124.004889 
L 183.866627 -128.366072 
L 185.466171 -121.538679 
L 187.065714 -123.745335 
L 188.665258 -119.539575 
L 190.264802 -119.702441 
L 191.864345 -118.931692 
L 193.463889 -118.018325 
L 195.063433 -116.414622 
L 196.662976 -110.089563 
L 198.26252 -110.215797 
L 199.862064 -107.158058 
L 201.461607 -104.797087 
L 203.061151 -104.528135 
L 204.660695 -103.654827 
L 206.260238 -93.524949 
L 207.859782 -96.924523 
L 209.459326 -90.162928 
L 211.058869 -94.20938 
L 212.658413 -91.773187 
L 214.257957 -89.227932 
L 215.8575 -84.736119 
L 217.457044 -77.774735 
L 219.056588 -82.448164 
L 220.656131 -78.667395 
L 222.255675 -73.939406 
L 223.855219 -77.116633 
L 225.454762 -70.411179 
L 227.054306 -70.129877 
L 228.65385 -67.431683 
L 230.253393 -70.857652 
L 231.852937 -66.891981 
L 233.452481 -66.277748 
L 235.052024 -61.962155 
L 236.651568 -61.275749 
L 238.251112 -63.280849 
L 239.850655 -61.005434 
L 241.450199 -59.665908 
L 243.049743 -59.885537 
L 244.649286 -56.265582 
L 246.24883 -58.885023 
L 247.848374 -59.689449 
L 249.447917 -63.144633 
L 251.047461 -55.78921 
L 252.647005 -62.347378 
L 254.246548 -62.238185 
L 255.846092 -56.953832 
L 257.445636 -57.673918 
L 259.045179 -57.8369 
L 260.644723 -59.102823 
L 262.244267 -57.821898 
L 263.84381 -58.582477 
L 265.443354 -56.677176 
L 267.042898 -61.711299 
L 267.042898 -63.037195 
L 267.042898 -63.037195 
L 265.443354 -58.022544 
L 263.84381 -59.889363 
L 262.244267 -59.155734 
L 260.644723 -60.462028 
L 259.045179 -59.27799 
L 257.445636 -59.05187 
L 255.846092 -58.348565 
L 254.246548 -63.600212 
L 252.647005 -63.742653 
L 251.047461 -57.148765 
L 249.447917 -64.463043 
L 247.848374 -61.047934 
L 246.24883 -60.151542 
L 244.649286 -57.619256 
L 243.049743 -61.187132 
L 241.450199 -60.996887 
L 239.850655 -62.370554 
L 238.251112 -64.642074 
L 236.651568 -62.709 
L 235.052024 -63.332211 
L 233.452481 -67.665871 
L 231.852937 -68.288953 
L 230.253393 -72.313801 
L 228.65385 -68.841835 
L 227.054306 -71.543211 
L 225.454762 -71.804696 
L 223.855219 -78.535563 
L 222.255675 -75.386521 
L 220.656131 -80.083228 
L 219.056588 -83.901357 
L 217.457044 -79.244485 
L 215.8575 -86.205284 
L 214.257957 -90.73883 
L 212.658413 -93.304757 
L 211.058869 -95.788773 
L 209.459326 -91.752029 
L 207.859782 -98.510079 
L 206.260238 -95.171284 
L 204.660695 -105.353809 
L 203.061151 -106.24032 
L 201.461607 -106.592949 
L 199.862064 -108.920343 
L 198.26252 -112.063597 
L 196.662976 -111.940398 
L 195.063433 -118.359701 
L 193.463889 -120.001953 
L 191.864345 -120.912308 
L 190.264802 -121.744621 
L 188.665258 -121.627767 
L 187.065714 -125.945414 
L 185.466171 -123.691258 
L 183.866627 -130.710079 
L 182.267083 -126.339108 
L 180.66754 -133.4155 
L 179.067996 -132.488286 
L 177.468452 -134.071933 
L 175.868909 -134.84048 
L 174.269365 -133.533368 
L 172.669821 -128.559387 
L 171.070278 -126.431082 
L 169.470734 -118.740048 
L 167.87119 -118.417295 
L 166.271647 -117.86755 
L 164.672103 -111.019686 
L 163.07256 -107.119471 
L 161.473016 -107.584802 
L 159.873472 -104.87261 
L 158.273929 -103.755826 
L 156.674385 -99.227372 
L 155.074841 -97.841792 
L 153.475298 -93.012458 
L 151.875754 -87.453938 
L 150.27621 -85.871133 
L 148.676667 -83.738756 
L 147.077123 -80.128842 
L 145.477579 -79.551976 
L 143.878036 -77.916258 
L 142.278492 -76.109494 
L 140.678948 -74.164772 
L 139.079405 -73.049958 
L 137.479861 -68.042812 
L 135.880317 -72.453754 
L 134.280774 -68.233363 
L 132.68123 -65.09021 
L 131.081686 -67.175581 
L 129.482143 -62.358177 
L 127.882599 -68.559495 
L 126.283055 -66.283706 
L 124.683512 -67.896262 
L 123.083968 -63.391118 
L 121.484424 -64.13253 
L 119.884881 -64.417538 
L 118.285337 -60.548502 
L 116.685793 -64.170984 
L 115.08625 -64.378604 
L 113.486706 -65.952797 
L 111.887162 -64.118519 
L 110.287619 -60.46281 
L 108.688075 -56.730624 
L 107.088531 -60.034923 
L 105.488988 -61.160382 
L 103.889444 -57.918968 
L 102.2899 -62.250857 
L 100.690357 -57.315278 
L 99.090813 -60.625651 
L 97.491269 -56.288478 
L 95.891726 -56.483985 
L 94.292182 -54.80497 
L 92.692638 -55.249775 
L 91.093095 -56.786053 
L 89.493551 -58.535558 
L 87.894007 -62.234996 
L 86.294464 -61.504311 
L 84.69492 -58.569761 
L 83.095376 -55.580683 
L 81.495833 -58.568183 
L 79.896289 -58.536849 
L 78.296745 -59.8403 
L 76.697202 -55.824921 
L 75.097658 -57.860858 
L 73.498114 -59.238969 
L 71.898571 -59.642068 
L 70.299027 -57.284679 
L 68.699483 -55.810051 
L 67.09994 -58.81679 
L 65.500396 -58.798238 
L 63.900852 -57.532571 
z
" style="stroke: #ff7f0e; stroke-opacity: 0.2"/>
    </defs>
    <g clip-path="url(#pe4831b7f31)">
     <use xlink:href="#m1c95fb7bba" x="0" y="216" style="fill: #ff7f0e; fill-opacity: 0.2; stroke: #ff7f0e; stroke-opacity: 0.2"/>
    </g>
   </g>
   <g id="PolyCollection_4">
    <defs>
     <path id="mc960641f96" d="M 63.900852 -58.492767 
L 63.900852 -57.160639 
L 65.500396 -56.490173 
L 67.09994 -56.01982 
L 68.699483 -58.016194 
L 70.299027 -60.060646 
L 71.898571 -59.548456 
L 73.498114 -60.61276 
L 75.097658 -56.478007 
L 76.697202 -57.539215 
L 78.296745 -60.644885 
L 79.896289 -60.057761 
L 81.495833 -62.515955 
L 83.095376 -61.046476 
L 84.69492 -64.059877 
L 86.294464 -66.4642 
L 87.894007 -63.943706 
L 89.493551 -63.726444 
L 91.093095 -61.956065 
L 92.692638 -56.407228 
L 94.292182 -62.151949 
L 95.891726 -62.029567 
L 97.491269 -62.95573 
L 99.090813 -64.081814 
L 100.690357 -61.681578 
L 102.2899 -66.000228 
L 103.889444 -60.333053 
L 105.488988 -63.341529 
L 107.088531 -65.005211 
L 108.688075 -66.193847 
L 110.287619 -59.481806 
L 111.887162 -61.453759 
L 113.486706 -61.273397 
L 115.08625 -61.503183 
L 116.685793 -60.881082 
L 118.285337 -59.568194 
L 119.884881 -63.064091 
L 121.484424 -61.833169 
L 123.083968 -65.355914 
L 124.683512 -63.849924 
L 126.283055 -66.704282 
L 127.882599 -70.363167 
L 129.482143 -65.742047 
L 131.081686 -68.874655 
L 132.68123 -67.616572 
L 134.280774 -70.466356 
L 135.880317 -72.882849 
L 137.479861 -71.551037 
L 139.079405 -73.665048 
L 140.678948 -72.510167 
L 142.278492 -70.800325 
L 143.878036 -79.644553 
L 145.477579 -80.438959 
L 147.077123 -82.595636 
L 148.676667 -84.509265 
L 150.27621 -87.584691 
L 151.875754 -83.299034 
L 153.475298 -88.43937 
L 155.074841 -94.557409 
L 156.674385 -91.121209 
L 158.273929 -99.189919 
L 159.873472 -98.089086 
L 161.473016 -97.802301 
L 163.07256 -104.487559 
L 164.672103 -104.272897 
L 166.271647 -111.102833 
L 167.87119 -114.213519 
L 169.470734 -121.798328 
L 171.070278 -129.622688 
L 172.669821 -131.700977 
L 174.269365 -137.228547 
L 175.868909 -139.827393 
L 177.468452 -143.532856 
L 179.067996 -142.861068 
L 180.66754 -141.341446 
L 182.267083 -137.132919 
L 183.866627 -132.264444 
L 185.466171 -132.161383 
L 187.065714 -130.598169 
L 188.665258 -126.812887 
L 190.264802 -123.323609 
L 191.864345 -119.626683 
L 193.463889 -112.459445 
L 195.063433 -113.455696 
L 196.662976 -110.1089 
L 198.26252 -105.334407 
L 199.862064 -101.743604 
L 201.461607 -101.724988 
L 203.061151 -101.707923 
L 204.660695 -96.900003 
L 206.260238 -91.696752 
L 207.859782 -93.087777 
L 209.459326 -91.443929 
L 211.058869 -91.794543 
L 212.658413 -89.000688 
L 214.257957 -90.636606 
L 215.8575 -88.383017 
L 217.457044 -82.678289 
L 219.056588 -85.568163 
L 220.656131 -83.766337 
L 222.255675 -82.533013 
L 223.855219 -79.648174 
L 225.454762 -77.639696 
L 227.054306 -79.501506 
L 228.65385 -78.361795 
L 230.253393 -79.65851 
L 231.852937 -72.262682 
L 233.452481 -76.149199 
L 235.052024 -73.61806 
L 236.651568 -67.982916 
L 238.251112 -72.116469 
L 239.850655 -68.258304 
L 241.450199 -69.295285 
L 243.049743 -69.115821 
L 244.649286 -66.556478 
L 246.24883 -65.771815 
L 247.848374 -62.068899 
L 249.447917 -70.245897 
L 251.047461 -67.124447 
L 252.647005 -67.03011 
L 254.246548 -68.569948 
L 255.846092 -65.062509 
L 257.445636 -62.355592 
L 259.045179 -66.122924 
L 260.644723 -68.834242 
L 262.244267 -67.313445 
L 263.84381 -66.308097 
L 265.443354 -68.114051 
L 267.042898 -63.706214 
L 267.042898 -65.201015 
L 267.042898 -65.201015 
L 265.443354 -69.538338 
L 263.84381 -67.776652 
L 262.244267 -68.78437 
L 260.644723 -70.261688 
L 259.045179 -67.547992 
L 257.445636 -63.755229 
L 255.846092 -66.555311 
L 254.246548 -70.036544 
L 252.647005 -68.406869 
L 251.047461 -68.562146 
L 249.447917 -71.728122 
L 247.848374 -63.483098 
L 246.24883 -67.187591 
L 244.649286 -68.022101 
L 243.049743 -70.602688 
L 241.450199 -70.744286 
L 239.850655 -69.706699 
L 238.251112 -73.524003 
L 236.651568 -69.463004 
L 235.052024 -75.110997 
L 233.452481 -77.715445 
L 231.852937 -73.72096 
L 230.253393 -81.199657 
L 228.65385 -80.105618 
L 227.054306 -81.010423 
L 225.454762 -79.190737 
L 223.855219 -81.266724 
L 222.255675 -84.104831 
L 220.656131 -85.448289 
L 219.056588 -87.194347 
L 217.457044 -84.30474 
L 215.8575 -90.078301 
L 214.257957 -92.369474 
L 212.658413 -90.652929 
L 211.058869 -93.438751 
L 209.459326 -93.149461 
L 207.859782 -94.7513 
L 206.260238 -93.296137 
L 204.660695 -98.687799 
L 203.061151 -103.445386 
L 201.461607 -103.537001 
L 199.862064 -103.581185 
L 198.26252 -107.227069 
L 196.662976 -112.118522 
L 195.063433 -115.507703 
L 193.463889 -114.466087 
L 191.864345 -121.789231 
L 190.264802 -125.540872 
L 188.665258 -129.130979 
L 187.065714 -133.001961 
L 185.466171 -134.634378 
L 183.866627 -134.797542 
L 182.267083 -139.666474 
L 180.66754 -143.915707 
L 179.067996 -145.435542 
L 177.468452 -146.094002 
L 175.868909 -142.329171 
L 174.269365 -139.633609 
L 172.669821 -134.05969 
L 171.070278 -131.938546 
L 169.470734 -123.778894 
L 167.87119 -116.156674 
L 166.271647 -112.995687 
L 164.672103 -106.104093 
L 163.07256 -106.248852 
L 161.473016 -99.61413 
L 159.873472 -99.767674 
L 158.273929 -100.907658 
L 156.674385 -92.776831 
L 155.074841 -96.202215 
L 153.475298 -89.976273 
L 151.875754 -84.826185 
L 150.27621 -89.129883 
L 148.676667 -86.094794 
L 147.077123 -84.136429 
L 145.477579 -81.91227 
L 143.878036 -81.222391 
L 142.278492 -72.232773 
L 140.678948 -74.015203 
L 139.079405 -75.12512 
L 137.479861 -73.025722 
L 135.880317 -74.299956 
L 134.280774 -71.881779 
L 132.68123 -68.999269 
L 131.081686 -70.370795 
L 129.482143 -67.215295 
L 127.882599 -71.739469 
L 126.283055 -68.182489 
L 124.683512 -65.251273 
L 123.083968 -66.747232 
L 121.484424 -63.224393 
L 119.884881 -64.421732 
L 118.285337 -60.922892 
L 116.685793 -62.236437 
L 115.08625 -62.886022 
L 113.486706 -62.622254 
L 111.887162 -62.840177 
L 110.287619 -60.849712 
L 108.688075 -67.632476 
L 107.088531 -66.414918 
L 105.488988 -64.765645 
L 103.889444 -61.669035 
L 102.2899 -67.443581 
L 100.690357 -63.077756 
L 99.090813 -65.513993 
L 97.491269 -64.323582 
L 95.891726 -63.473206 
L 94.292182 -63.555545 
L 92.692638 -57.775063 
L 91.093095 -63.341112 
L 89.493551 -65.112802 
L 87.894007 -65.360061 
L 86.294464 -67.862143 
L 84.69492 -65.504968 
L 83.095376 -62.463143 
L 81.495833 -63.865137 
L 79.896289 -61.503363 
L 78.296745 -62.06273 
L 76.697202 -58.903472 
L 75.097658 -57.85233 
L 73.498114 -62.096394 
L 71.898571 -60.931596 
L 70.299027 -61.447329 
L 68.699483 -59.380232 
L 67.09994 -57.464883 
L 65.500396 -57.865936 
L 63.900852 -58.492767 
z
" style="stroke: #ffbb78; stroke-opacity: 0.2"/>
    </defs>
    <g clip-path="url(#pe4831b7f31)">
     <use xlink:href="#mc960641f96" x="0" y="216" style="fill: #ffbb78; fill-opacity: 0.2; stroke: #ffbb78; stroke-opacity: 0.2"/>
    </g>
   </g>
   <g id="PolyCollection_5">
    <defs>
     <path id="m79de7997db" d="M 63.900852 -74.817572 
L 63.900852 -72.795142 
L 65.500396 -72.722843 
L 67.09994 -75.990736 
L 68.699483 -79.702239 
L 70.299027 -79.347404 
L 71.898571 -79.385956 
L 73.498114 -78.062061 
L 75.097658 -83.110048 
L 76.697202 -75.785618 
L 78.296745 -82.188926 
L 79.896289 -83.057339 
L 81.495833 -82.141637 
L 83.095376 -85.086693 
L 84.69492 -89.256483 
L 86.294464 -89.785485 
L 87.894007 -90.196118 
L 89.493551 -89.478593 
L 91.093095 -92.652583 
L 92.692638 -89.127642 
L 94.292182 -92.524585 
L 95.891726 -99.475496 
L 97.491269 -98.42961 
L 99.090813 -99.638037 
L 100.690357 -95.63385 
L 102.2899 -101.177319 
L 103.889444 -96.136075 
L 105.488988 -98.929312 
L 107.088531 -99.751215 
L 108.688075 -102.514349 
L 110.287619 -102.76149 
L 111.887162 -103.845177 
L 113.486706 -103.926141 
L 115.08625 -101.757426 
L 116.685793 -104.928605 
L 118.285337 -108.99838 
L 119.884881 -108.746406 
L 121.484424 -110.054539 
L 123.083968 -116.822006 
L 124.683512 -119.209937 
L 126.283055 -124.793873 
L 127.882599 -127.743602 
L 129.482143 -129.460562 
L 131.081686 -127.600964 
L 132.68123 -132.026268 
L 134.280774 -130.99455 
L 135.880317 -136.925033 
L 137.479861 -136.553024 
L 139.079405 -138.271223 
L 140.678948 -141.884536 
L 142.278492 -142.044012 
L 143.878036 -145.137343 
L 145.477579 -149.13905 
L 147.077123 -155.690461 
L 148.676667 -158.306156 
L 150.27621 -160.097144 
L 151.875754 -158.320696 
L 153.475298 -168.428286 
L 155.074841 -173.658388 
L 156.674385 -173.087802 
L 158.273929 -183.485097 
L 159.873472 -183.942035 
L 161.473016 -190.291043 
L 163.07256 -192.116516 
L 164.672103 -191.265567 
L 166.271647 -194.027926 
L 167.87119 -188.760376 
L 169.470734 -187.008937 
L 171.070278 -191.720886 
L 172.669821 -190.640795 
L 174.269365 -187.438235 
L 175.868909 -188.513511 
L 177.468452 -192.878188 
L 179.067996 -187.796791 
L 180.66754 -183.393094 
L 182.267083 -182.973503 
L 183.866627 -179.215544 
L 185.466171 -175.186786 
L 187.065714 -172.488598 
L 188.665258 -173.124309 
L 190.264802 -168.669192 
L 191.864345 -166.668895 
L 193.463889 -164.455774 
L 195.063433 -164.411942 
L 196.662976 -159.954996 
L 198.26252 -159.665054 
L 199.862064 -153.123603 
L 201.461607 -151.64547 
L 203.061151 -152.922516 
L 204.660695 -146.320925 
L 206.260238 -148.746661 
L 207.859782 -142.92651 
L 209.459326 -142.75296 
L 211.058869 -137.596135 
L 212.658413 -133.965454 
L 214.257957 -137.815058 
L 215.8575 -134.099158 
L 217.457044 -126.830879 
L 219.056588 -127.739318 
L 220.656131 -122.199381 
L 222.255675 -120.656078 
L 223.855219 -121.545273 
L 225.454762 -118.171966 
L 227.054306 -117.057633 
L 228.65385 -113.333559 
L 230.253393 -112.84058 
L 231.852937 -106.883436 
L 233.452481 -106.917556 
L 235.052024 -107.871547 
L 236.651568 -100.226322 
L 238.251112 -97.695885 
L 239.850655 -94.283881 
L 241.450199 -95.696696 
L 243.049743 -96.167583 
L 244.649286 -88.69318 
L 246.24883 -87.058984 
L 247.848374 -84.900833 
L 249.447917 -89.197126 
L 251.047461 -82.327861 
L 252.647005 -87.717698 
L 254.246548 -83.995983 
L 255.846092 -86.618321 
L 257.445636 -86.891407 
L 259.045179 -84.773373 
L 260.644723 -84.908717 
L 262.244267 -79.282886 
L 263.84381 -79.117969 
L 265.443354 -79.392195 
L 267.042898 -78.790273 
L 267.042898 -80.807024 
L 267.042898 -80.807024 
L 265.443354 -81.440465 
L 263.84381 -81.14653 
L 262.244267 -81.219648 
L 260.644723 -87.021478 
L 259.045179 -86.848438 
L 257.445636 -88.927947 
L 255.846092 -88.672228 
L 254.246548 -86.120004 
L 252.647005 -89.825446 
L 251.047461 -84.415806 
L 249.447917 -91.421546 
L 247.848374 -87.007322 
L 246.24883 -89.129898 
L 244.649286 -90.857645 
L 243.049743 -98.415109 
L 241.450199 -97.933816 
L 239.850655 -96.48941 
L 238.251112 -99.882192 
L 236.651568 -102.501596 
L 235.052024 -110.253112 
L 233.452481 -109.353838 
L 231.852937 -109.192727 
L 230.253393 -115.198725 
L 228.65385 -115.637471 
L 227.054306 -119.459826 
L 225.454762 -120.68728 
L 223.855219 -123.987858 
L 222.255675 -123.156443 
L 220.656131 -124.714294 
L 219.056588 -130.299571 
L 217.457044 -129.486056 
L 215.8575 -136.843303 
L 214.257957 -140.461138 
L 212.658413 -136.713469 
L 211.058869 -140.416487 
L 209.459326 -145.531113 
L 207.859782 -145.756085 
L 206.260238 -151.571719 
L 204.660695 -149.200031 
L 203.061151 -155.896684 
L 201.461607 -154.792304 
L 199.862064 -156.225539 
L 198.26252 -162.727392 
L 196.662976 -163.042963 
L 195.063433 -167.666504 
L 193.463889 -167.750975 
L 191.864345 -169.909492 
L 190.264802 -172.070871 
L 188.665258 -176.629232 
L 187.065714 -176.019312 
L 185.466171 -178.740986 
L 183.866627 -182.907078 
L 182.267083 -186.586849 
L 180.66754 -187.11573 
L 179.067996 -191.343933 
L 177.468452 -196.653227 
L 175.868909 -192.217327 
L 174.269365 -191.040698 
L 172.669821 -194.290748 
L 171.070278 -195.289498 
L 169.470734 -190.458706 
L 167.87119 -192.349693 
L 166.271647 -197.743466 
L 164.672103 -194.789179 
L 163.07256 -195.686542 
L 161.473016 -193.750242 
L 159.873472 -187.380922 
L 158.273929 -186.873697 
L 156.674385 -176.437452 
L 155.074841 -176.946274 
L 153.475298 -171.641351 
L 151.875754 -161.397983 
L 150.27621 -163.154376 
L 148.676667 -161.357497 
L 147.077123 -158.747926 
L 145.477579 -152.16565 
L 143.878036 -148.077649 
L 142.278492 -144.814683 
L 140.678948 -144.622906 
L 139.079405 -141.017444 
L 137.479861 -139.292971 
L 135.880317 -139.80033 
L 134.280774 -133.650526 
L 132.68123 -134.689301 
L 131.081686 -130.265397 
L 129.482143 -132.003033 
L 127.882599 -130.37281 
L 126.283055 -127.323647 
L 124.683512 -121.637694 
L 123.083968 -119.379764 
L 121.484424 -112.388158 
L 119.884881 -111.153961 
L 118.285337 -111.220739 
L 116.685793 -107.247092 
L 115.08625 -104.090122 
L 113.486706 -106.10402 
L 111.887162 -106.179781 
L 110.287619 -104.996803 
L 108.688075 -104.85591 
L 107.088531 -102.029914 
L 105.488988 -101.052133 
L 103.889444 -98.315198 
L 102.2899 -103.398482 
L 100.690357 -97.895594 
L 99.090813 -101.699019 
L 97.491269 -100.659759 
L 95.891726 -101.783966 
L 94.292182 -94.832938 
L 92.692638 -91.269131 
L 91.093095 -94.864043 
L 89.493551 -91.738444 
L 87.894007 -92.405869 
L 86.294464 -91.979693 
L 84.69492 -91.339919 
L 83.095376 -87.321062 
L 81.495833 -84.26238 
L 79.896289 -85.212501 
L 78.296745 -84.303222 
L 76.697202 -77.853881 
L 75.097658 -85.078087 
L 73.498114 -80.142042 
L 71.898571 -81.487445 
L 70.299027 -81.454327 
L 68.699483 -81.873072 
L 67.09994 -77.92428 
L 65.500396 -74.771808 
L 63.900852 -74.817572 
z
" style="stroke: #2ca02c; stroke-opacity: 0.2"/>
    </defs>
    <g clip-path="url(#pe4831b7f31)">
     <use xlink:href="#m79de7997db" x="0" y="216" style="fill: #2ca02c; fill-opacity: 0.2; stroke: #2ca02c; stroke-opacity: 0.2"/>
    </g>
   </g>
   <g id="matplotlib.axis_1">
    <g id="xtick_1">
     <g id="line2d_1">
      <defs>
       <path id="m32599cdbb3" d="M 0 0 
L 0 3.5 
" style="stroke: #000000; stroke-width: 0.8"/>
      </defs>
      <g>
       <use xlink:href="#m32599cdbb3" x="63.900852" y="174.84375" style="stroke: #000000; stroke-width: 0.8"/>
      </g>
     </g>
     <g id="text_1">
      <!-- −2 -->
      <g transform="translate(56.529759 189.442187) scale(0.1 -0.1)">
       <defs>
        <path id="DejaVuSans-2212" d="M 678 2272 
L 4684 2272 
L 4684 1741 
L 678 1741 
L 678 2272 
z
" transform="scale(0.015625)"/>
        <path id="DejaVuSans-32" d="M 1228 531 
L 3431 531 
L 3431 0 
L 469 0 
L 469 531 
Q 828 903 1448 1529 
Q 2069 2156 2228 2338 
Q 2531 2678 2651 2914 
Q 2772 3150 2772 3378 
Q 2772 3750 2511 3984 
Q 2250 4219 1831 4219 
Q 1534 4219 1204 4116 
Q 875 4013 500 3803 
L 500 4441 
Q 881 4594 1212 4672 
Q 1544 4750 1819 4750 
Q 2544 4750 2975 4387 
Q 3406 4025 3406 3419 
Q 3406 3131 3298 2873 
Q 3191 2616 2906 2266 
Q 2828 2175 2409 1742 
Q 1991 1309 1228 531 
z
" transform="scale(0.015625)"/>
       </defs>
       <use xlink:href="#DejaVuSans-2212"/>
       <use xlink:href="#DejaVuSans-32" x="83.789062"/>
      </g>
     </g>
    </g>
    <g id="xtick_2">
     <g id="line2d_2">
      <g>
       <use xlink:href="#m32599cdbb3" x="115.08625" y="174.84375" style="stroke: #000000; stroke-width: 0.8"/>
      </g>
     </g>
     <g id="text_2">
      <!-- −1 -->
      <g transform="translate(107.715156 189.442187) scale(0.1 -0.1)">
       <defs>
        <path id="DejaVuSans-31" d="M 794 531 
L 1825 531 
L 1825 4091 
L 703 3866 
L 703 4441 
L 1819 4666 
L 2450 4666 
L 2450 531 
L 3481 531 
L 3481 0 
L 794 0 
L 794 531 
z
" transform="scale(0.015625)"/>
       </defs>
       <use xlink:href="#DejaVuSans-2212"/>
       <use xlink:href="#DejaVuSans-31" x="83.789062"/>
      </g>
     </g>
    </g>
    <g id="xtick_3">
     <g id="line2d_3">
      <g>
       <use xlink:href="#m32599cdbb3" x="166.271647" y="174.84375" style="stroke: #000000; stroke-width: 0.8"/>
      </g>
     </g>
     <g id="text_3">
      <!-- 0 -->
      <g transform="translate(163.090397 189.442187) scale(0.1 -0.1)">
       <defs>
        <path id="DejaVuSans-30" d="M 2034 4250 
Q 1547 4250 1301 3770 
Q 1056 3291 1056 2328 
Q 1056 1369 1301 889 
Q 1547 409 2034 409 
Q 2525 409 2770 889 
Q 3016 1369 3016 2328 
Q 3016 3291 2770 3770 
Q 2525 4250 2034 4250 
z
M 2034 4750 
Q 2819 4750 3233 4129 
Q 3647 3509 3647 2328 
Q 3647 1150 3233 529 
Q 2819 -91 2034 -91 
Q 1250 -91 836 529 
Q 422 1150 422 2328 
Q 422 3509 836 4129 
Q 1250 4750 2034 4750 
z
" transform="scale(0.015625)"/>
       </defs>
       <use xlink:href="#DejaVuSans-30"/>
      </g>
     </g>
    </g>
    <g id="xtick_4">
     <g id="line2d_4">
      <g>
       <use xlink:href="#m32599cdbb3" x="217.457044" y="174.84375" style="stroke: #000000; stroke-width: 0.8"/>
      </g>
     </g>
     <g id="text_4">
      <!-- 1 -->
      <g transform="translate(214.275794 189.442187) scale(0.1 -0.1)">
       <use xlink:href="#DejaVuSans-31"/>
      </g>
     </g>
    </g>
    <g id="xtick_5">
     <g id="line2d_5">
      <g>
       <use xlink:href="#m32599cdbb3" x="268.642441" y="174.84375" style="stroke: #000000; stroke-width: 0.8"/>
      </g>
     </g>
     <g id="text_5">
      <!-- 2 -->
      <g transform="translate(265.461191 189.442187) scale(0.1 -0.1)">
       <use xlink:href="#DejaVuSans-32"/>
      </g>
     </g>
    </g>
    <g id="text_6">
     <!-- lag (s) -->
     <g transform="translate(149.749219 203.120312) scale(0.1 -0.1)">
      <defs>
       <path id="DejaVuSans-6c" d="M 603 4863 
L 1178 4863 
L 1178 0 
L 603 0 
L 603 4863 
z
" transform="scale(0.015625)"/>
       <path id="DejaVuSans-61" d="M 2194 1759 
Q 1497 1759 1228 1600 
Q 959 1441 959 1056 
Q 959 750 1161 570 
Q 1363 391 1709 391 
Q 2188 391 2477 730 
Q 2766 1069 2766 1631 
L 2766 1759 
L 2194 1759 
z
M 3341 1997 
L 3341 0 
L 2766 0 
L 2766 531 
Q 2569 213 2275 61 
Q 1981 -91 1556 -91 
Q 1019 -91 701 211 
Q 384 513 384 1019 
Q 384 1609 779 1909 
Q 1175 2209 1959 2209 
L 2766 2209 
L 2766 2266 
Q 2766 2663 2505 2880 
Q 2244 3097 1772 3097 
Q 1472 3097 1187 3025 
Q 903 2953 641 2809 
L 641 3341 
Q 956 3463 1253 3523 
Q 1550 3584 1831 3584 
Q 2591 3584 2966 3190 
Q 3341 2797 3341 1997 
z
" transform="scale(0.015625)"/>
       <path id="DejaVuSans-67" d="M 2906 1791 
Q 2906 2416 2648 2759 
Q 2391 3103 1925 3103 
Q 1463 3103 1205 2759 
Q 947 2416 947 1791 
Q 947 1169 1205 825 
Q 1463 481 1925 481 
Q 2391 481 2648 825 
Q 2906 1169 2906 1791 
z
M 3481 434 
Q 3481 -459 3084 -895 
Q 2688 -1331 1869 -1331 
Q 1566 -1331 1297 -1286 
Q 1028 -1241 775 -1147 
L 775 -588 
Q 1028 -725 1275 -790 
Q 1522 -856 1778 -856 
Q 2344 -856 2625 -561 
Q 2906 -266 2906 331 
L 2906 616 
Q 2728 306 2450 153 
Q 2172 0 1784 0 
Q 1141 0 747 490 
Q 353 981 353 1791 
Q 353 2603 747 3093 
Q 1141 3584 1784 3584 
Q 2172 3584 2450 3431 
Q 2728 3278 2906 2969 
L 2906 3500 
L 3481 3500 
L 3481 434 
z
" transform="scale(0.015625)"/>
       <path id="DejaVuSans-20" transform="scale(0.015625)"/>
       <path id="DejaVuSans-28" d="M 1984 4856 
Q 1566 4138 1362 3434 
Q 1159 2731 1159 2009 
Q 1159 1288 1364 580 
Q 1569 -128 1984 -844 
L 1484 -844 
Q 1016 -109 783 600 
Q 550 1309 550 2009 
Q 550 2706 781 3412 
Q 1013 4119 1484 4856 
L 1984 4856 
z
" transform="scale(0.015625)"/>
       <path id="DejaVuSans-73" d="M 2834 3397 
L 2834 2853 
Q 2591 2978 2328 3040 
Q 2066 3103 1784 3103 
Q 1356 3103 1142 2972 
Q 928 2841 928 2578 
Q 928 2378 1081 2264 
Q 1234 2150 1697 2047 
L 1894 2003 
Q 2506 1872 2764 1633 
Q 3022 1394 3022 966 
Q 3022 478 2636 193 
Q 2250 -91 1575 -91 
Q 1294 -91 989 -36 
Q 684 19 347 128 
L 347 722 
Q 666 556 975 473 
Q 1284 391 1588 391 
Q 1994 391 2212 530 
Q 2431 669 2431 922 
Q 2431 1156 2273 1281 
Q 2116 1406 1581 1522 
L 1381 1569 
Q 847 1681 609 1914 
Q 372 2147 372 2553 
Q 372 3047 722 3315 
Q 1072 3584 1716 3584 
Q 2034 3584 2315 3537 
Q 2597 3491 2834 3397 
z
" transform="scale(0.015625)"/>
       <path id="DejaVuSans-29" d="M 513 4856 
L 1013 4856 
Q 1481 4119 1714 3412 
Q 1947 2706 1947 2009 
Q 1947 1309 1714 600 
Q 1481 -109 1013 -844 
L 513 -844 
Q 928 -128 1133 580 
Q 1338 1288 1338 2009 
Q 1338 2731 1133 3434 
Q 928 4138 513 4856 
z
" transform="scale(0.015625)"/>
      </defs>
      <use xlink:href="#DejaVuSans-6c"/>
      <use xlink:href="#DejaVuSans-61" x="27.783203"/>
      <use xlink:href="#DejaVuSans-67" x="89.0625"/>
      <use xlink:href="#DejaVuSans-20" x="152.539062"/>
      <use xlink:href="#DejaVuSans-28" x="184.326172"/>
      <use xlink:href="#DejaVuSans-73" x="223.339844"/>
      <use xlink:href="#DejaVuSans-29" x="275.439453"/>
     </g>
    </g>
   </g>
   <g id="matplotlib.axis_2">
    <g id="ytick_1">
     <g id="line2d_6">
      <defs>
       <path id="m1876e370f7" d="M 0 0 
L -3.5 0 
" style="stroke: #000000; stroke-width: 0.8"/>
      </defs>
      <g>
       <use xlink:href="#m1876e370f7" x="53.74375" y="162.500685" style="stroke: #000000; stroke-width: 0.8"/>
      </g>
     </g>
     <g id="text_7">
      <!-- 0.00 -->
      <g transform="translate(24.478125 166.299904) scale(0.1 -0.1)">
       <defs>
        <path id="DejaVuSans-2e" d="M 684 794 
L 1344 794 
L 1344 0 
L 684 0 
L 684 794 
z
" transform="scale(0.015625)"/>
       </defs>
       <use xlink:href="#DejaVuSans-30"/>
       <use xlink:href="#DejaVuSans-2e" x="63.623047"/>
       <use xlink:href="#DejaVuSans-30" x="95.410156"/>
       <use xlink:href="#DejaVuSans-30" x="159.033203"/>
      </g>
     </g>
    </g>
    <g id="ytick_2">
     <g id="line2d_7">
      <g>
       <use xlink:href="#m1876e370f7" x="53.74375" y="138.459705" style="stroke: #000000; stroke-width: 0.8"/>
      </g>
     </g>
     <g id="text_8">
      <!-- 0.02 -->
      <g transform="translate(24.478125 142.258923) scale(0.1 -0.1)">
       <use xlink:href="#DejaVuSans-30"/>
       <use xlink:href="#DejaVuSans-2e" x="63.623047"/>
       <use xlink:href="#DejaVuSans-30" x="95.410156"/>
       <use xlink:href="#DejaVuSans-32" x="159.033203"/>
      </g>
     </g>
    </g>
    <g id="ytick_3">
     <g id="line2d_8">
      <g>
       <use xlink:href="#m1876e370f7" x="53.74375" y="114.418724" style="stroke: #000000; stroke-width: 0.8"/>
      </g>
     </g>
     <g id="text_9">
      <!-- 0.04 -->
      <g transform="translate(24.478125 118.217943) scale(0.1 -0.1)">
       <defs>
        <path id="DejaVuSans-34" d="M 2419 4116 
L 825 1625 
L 2419 1625 
L 2419 4116 
z
M 2253 4666 
L 3047 4666 
L 3047 1625 
L 3713 1625 
L 3713 1100 
L 3047 1100 
L 3047 0 
L 2419 0 
L 2419 1100 
L 313 1100 
L 313 1709 
L 2253 4666 
z
" transform="scale(0.015625)"/>
       </defs>
       <use xlink:href="#DejaVuSans-30"/>
       <use xlink:href="#DejaVuSans-2e" x="63.623047"/>
       <use xlink:href="#DejaVuSans-30" x="95.410156"/>
       <use xlink:href="#DejaVuSans-34" x="159.033203"/>
      </g>
     </g>
    </g>
    <g id="ytick_4">
     <g id="line2d_9">
      <g>
       <use xlink:href="#m1876e370f7" x="53.74375" y="90.377743" style="stroke: #000000; stroke-width: 0.8"/>
      </g>
     </g>
     <g id="text_10">
      <!-- 0.06 -->
      <g transform="translate(24.478125 94.176962) scale(0.1 -0.1)">
       <defs>
        <path id="DejaVuSans-36" d="M 2113 2584 
Q 1688 2584 1439 2293 
Q 1191 2003 1191 1497 
Q 1191 994 1439 701 
Q 1688 409 2113 409 
Q 2538 409 2786 701 
Q 3034 994 3034 1497 
Q 3034 2003 2786 2293 
Q 2538 2584 2113 2584 
z
M 3366 4563 
L 3366 3988 
Q 3128 4100 2886 4159 
Q 2644 4219 2406 4219 
Q 1781 4219 1451 3797 
Q 1122 3375 1075 2522 
Q 1259 2794 1537 2939 
Q 1816 3084 2150 3084 
Q 2853 3084 3261 2657 
Q 3669 2231 3669 1497 
Q 3669 778 3244 343 
Q 2819 -91 2113 -91 
Q 1303 -91 875 529 
Q 447 1150 447 2328 
Q 447 3434 972 4092 
Q 1497 4750 2381 4750 
Q 2619 4750 2861 4703 
Q 3103 4656 3366 4563 
z
" transform="scale(0.015625)"/>
       </defs>
       <use xlink:href="#DejaVuSans-30"/>
       <use xlink:href="#DejaVuSans-2e" x="63.623047"/>
       <use xlink:href="#DejaVuSans-30" x="95.410156"/>
       <use xlink:href="#DejaVuSans-36" x="159.033203"/>
      </g>
     </g>
    </g>
    <g id="ytick_5">
     <g id="line2d_10">
      <g>
       <use xlink:href="#m1876e370f7" x="53.74375" y="66.336763" style="stroke: #000000; stroke-width: 0.8"/>
      </g>
     </g>
     <g id="text_11">
      <!-- 0.08 -->
      <g transform="translate(24.478125 70.135981) scale(0.1 -0.1)">
       <defs>
        <path id="DejaVuSans-38" d="M 2034 2216 
Q 1584 2216 1326 1975 
Q 1069 1734 1069 1313 
Q 1069 891 1326 650 
Q 1584 409 2034 409 
Q 2484 409 2743 651 
Q 3003 894 3003 1313 
Q 3003 1734 2745 1975 
Q 2488 2216 2034 2216 
z
M 1403 2484 
Q 997 2584 770 2862 
Q 544 3141 544 3541 
Q 544 4100 942 4425 
Q 1341 4750 2034 4750 
Q 2731 4750 3128 4425 
Q 3525 4100 3525 3541 
Q 3525 3141 3298 2862 
Q 3072 2584 2669 2484 
Q 3125 2378 3379 2068 
Q 3634 1759 3634 1313 
Q 3634 634 3220 271 
Q 2806 -91 2034 -91 
Q 1263 -91 848 271 
Q 434 634 434 1313 
Q 434 1759 690 2068 
Q 947 2378 1403 2484 
z
M 1172 3481 
Q 1172 3119 1398 2916 
Q 1625 2713 2034 2713 
Q 2441 2713 2670 2916 
Q 2900 3119 2900 3481 
Q 2900 3844 2670 4047 
Q 2441 4250 2034 4250 
Q 1625 4250 1398 4047 
Q 1172 3844 1172 3481 
z
" transform="scale(0.015625)"/>
       </defs>
       <use xlink:href="#DejaVuSans-30"/>
       <use xlink:href="#DejaVuSans-2e" x="63.623047"/>
       <use xlink:href="#DejaVuSans-30" x="95.410156"/>
       <use xlink:href="#DejaVuSans-38" x="159.033203"/>
      </g>
     </g>
    </g>
    <g id="ytick_6">
     <g id="line2d_11">
      <g>
       <use xlink:href="#m1876e370f7" x="53.74375" y="42.295782" style="stroke: #000000; stroke-width: 0.8"/>
      </g>
     </g>
     <g id="text_12">
      <!-- 0.10 -->
      <g transform="translate(24.478125 46.095001) scale(0.1 -0.1)">
       <use xlink:href="#DejaVuSans-30"/>
       <use xlink:href="#DejaVuSans-2e" x="63.623047"/>
       <use xlink:href="#DejaVuSans-31" x="95.410156"/>
       <use xlink:href="#DejaVuSans-30" x="159.033203"/>
      </g>
     </g>
    </g>
    <g id="ytick_7">
     <g id="line2d_12">
      <g>
       <use xlink:href="#m1876e370f7" x="53.74375" y="18.254801" style="stroke: #000000; stroke-width: 0.8"/>
      </g>
     </g>
     <g id="text_13">
      <!-- 0.12 -->
      <g transform="translate(24.478125 22.05402) scale(0.1 -0.1)">
       <use xlink:href="#DejaVuSans-30"/>
       <use xlink:href="#DejaVuSans-2e" x="63.623047"/>
       <use xlink:href="#DejaVuSans-31" x="95.410156"/>
       <use xlink:href="#DejaVuSans-32" x="159.033203"/>
      </g>
     </g>
    </g>
    <g id="text_14">
     <!-- encoding performance (r± sem) -->
     <g transform="translate(18.398438 173.270313) rotate(-90) scale(0.1 -0.1)">
      <defs>
       <path id="DejaVuSans-65" d="M 3597 1894 
L 3597 1613 
L 953 1613 
Q 991 1019 1311 708 
Q 1631 397 2203 397 
Q 2534 397 2845 478 
Q 3156 559 3463 722 
L 3463 178 
Q 3153 47 2828 -22 
Q 2503 -91 2169 -91 
Q 1331 -91 842 396 
Q 353 884 353 1716 
Q 353 2575 817 3079 
Q 1281 3584 2069 3584 
Q 2775 3584 3186 3129 
Q 3597 2675 3597 1894 
z
M 3022 2063 
Q 3016 2534 2758 2815 
Q 2500 3097 2075 3097 
Q 1594 3097 1305 2825 
Q 1016 2553 972 2059 
L 3022 2063 
z
" transform="scale(0.015625)"/>
       <path id="DejaVuSans-6e" d="M 3513 2113 
L 3513 0 
L 2938 0 
L 2938 2094 
Q 2938 2591 2744 2837 
Q 2550 3084 2163 3084 
Q 1697 3084 1428 2787 
Q 1159 2491 1159 1978 
L 1159 0 
L 581 0 
L 581 3500 
L 1159 3500 
L 1159 2956 
Q 1366 3272 1645 3428 
Q 1925 3584 2291 3584 
Q 2894 3584 3203 3211 
Q 3513 2838 3513 2113 
z
" transform="scale(0.015625)"/>
       <path id="DejaVuSans-63" d="M 3122 3366 
L 3122 2828 
Q 2878 2963 2633 3030 
Q 2388 3097 2138 3097 
Q 1578 3097 1268 2742 
Q 959 2388 959 1747 
Q 959 1106 1268 751 
Q 1578 397 2138 397 
Q 2388 397 2633 464 
Q 2878 531 3122 666 
L 3122 134 
Q 2881 22 2623 -34 
Q 2366 -91 2075 -91 
Q 1284 -91 818 406 
Q 353 903 353 1747 
Q 353 2603 823 3093 
Q 1294 3584 2113 3584 
Q 2378 3584 2631 3529 
Q 2884 3475 3122 3366 
z
" transform="scale(0.015625)"/>
       <path id="DejaVuSans-6f" d="M 1959 3097 
Q 1497 3097 1228 2736 
Q 959 2375 959 1747 
Q 959 1119 1226 758 
Q 1494 397 1959 397 
Q 2419 397 2687 759 
Q 2956 1122 2956 1747 
Q 2956 2369 2687 2733 
Q 2419 3097 1959 3097 
z
M 1959 3584 
Q 2709 3584 3137 3096 
Q 3566 2609 3566 1747 
Q 3566 888 3137 398 
Q 2709 -91 1959 -91 
Q 1206 -91 779 398 
Q 353 888 353 1747 
Q 353 2609 779 3096 
Q 1206 3584 1959 3584 
z
" transform="scale(0.015625)"/>
       <path id="DejaVuSans-64" d="M 2906 2969 
L 2906 4863 
L 3481 4863 
L 3481 0 
L 2906 0 
L 2906 525 
Q 2725 213 2448 61 
Q 2172 -91 1784 -91 
Q 1150 -91 751 415 
Q 353 922 353 1747 
Q 353 2572 751 3078 
Q 1150 3584 1784 3584 
Q 2172 3584 2448 3432 
Q 2725 3281 2906 2969 
z
M 947 1747 
Q 947 1113 1208 752 
Q 1469 391 1925 391 
Q 2381 391 2643 752 
Q 2906 1113 2906 1747 
Q 2906 2381 2643 2742 
Q 2381 3103 1925 3103 
Q 1469 3103 1208 2742 
Q 947 2381 947 1747 
z
" transform="scale(0.015625)"/>
       <path id="DejaVuSans-69" d="M 603 3500 
L 1178 3500 
L 1178 0 
L 603 0 
L 603 3500 
z
M 603 4863 
L 1178 4863 
L 1178 4134 
L 603 4134 
L 603 4863 
z
" transform="scale(0.015625)"/>
       <path id="DejaVuSans-70" d="M 1159 525 
L 1159 -1331 
L 581 -1331 
L 581 3500 
L 1159 3500 
L 1159 2969 
Q 1341 3281 1617 3432 
Q 1894 3584 2278 3584 
Q 2916 3584 3314 3078 
Q 3713 2572 3713 1747 
Q 3713 922 3314 415 
Q 2916 -91 2278 -91 
Q 1894 -91 1617 61 
Q 1341 213 1159 525 
z
M 3116 1747 
Q 3116 2381 2855 2742 
Q 2594 3103 2138 3103 
Q 1681 3103 1420 2742 
Q 1159 2381 1159 1747 
Q 1159 1113 1420 752 
Q 1681 391 2138 391 
Q 2594 391 2855 752 
Q 3116 1113 3116 1747 
z
" transform="scale(0.015625)"/>
       <path id="DejaVuSans-72" d="M 2631 2963 
Q 2534 3019 2420 3045 
Q 2306 3072 2169 3072 
Q 1681 3072 1420 2755 
Q 1159 2438 1159 1844 
L 1159 0 
L 581 0 
L 581 3500 
L 1159 3500 
L 1159 2956 
Q 1341 3275 1631 3429 
Q 1922 3584 2338 3584 
Q 2397 3584 2469 3576 
Q 2541 3569 2628 3553 
L 2631 2963 
z
" transform="scale(0.015625)"/>
       <path id="DejaVuSans-66" d="M 2375 4863 
L 2375 4384 
L 1825 4384 
Q 1516 4384 1395 4259 
Q 1275 4134 1275 3809 
L 1275 3500 
L 2222 3500 
L 2222 3053 
L 1275 3053 
L 1275 0 
L 697 0 
L 697 3053 
L 147 3053 
L 147 3500 
L 697 3500 
L 697 3744 
Q 697 4328 969 4595 
Q 1241 4863 1831 4863 
L 2375 4863 
z
" transform="scale(0.015625)"/>
       <path id="DejaVuSans-6d" d="M 3328 2828 
Q 3544 3216 3844 3400 
Q 4144 3584 4550 3584 
Q 5097 3584 5394 3201 
Q 5691 2819 5691 2113 
L 5691 0 
L 5113 0 
L 5113 2094 
Q 5113 2597 4934 2840 
Q 4756 3084 4391 3084 
Q 3944 3084 3684 2787 
Q 3425 2491 3425 1978 
L 3425 0 
L 2847 0 
L 2847 2094 
Q 2847 2600 2669 2842 
Q 2491 3084 2119 3084 
Q 1678 3084 1418 2786 
Q 1159 2488 1159 1978 
L 1159 0 
L 581 0 
L 581 3500 
L 1159 3500 
L 1159 2956 
Q 1356 3278 1631 3431 
Q 1906 3584 2284 3584 
Q 2666 3584 2933 3390 
Q 3200 3197 3328 2828 
z
" transform="scale(0.015625)"/>
       <path id="DejaVuSans-b1" d="M 2944 4013 
L 2944 2803 
L 4684 2803 
L 4684 2272 
L 2944 2272 
L 2944 1063 
L 2419 1063 
L 2419 2272 
L 678 2272 
L 678 2803 
L 2419 2803 
L 2419 4013 
L 2944 4013 
z
M 678 531 
L 4684 531 
L 4684 0 
L 678 0 
L 678 531 
z
" transform="scale(0.015625)"/>
      </defs>
      <use xlink:href="#DejaVuSans-65"/>
      <use xlink:href="#DejaVuSans-6e" x="61.523438"/>
      <use xlink:href="#DejaVuSans-63" x="124.902344"/>
      <use xlink:href="#DejaVuSans-6f" x="179.882812"/>
      <use xlink:href="#DejaVuSans-64" x="241.064453"/>
      <use xlink:href="#DejaVuSans-69" x="304.541016"/>
      <use xlink:href="#DejaVuSans-6e" x="332.324219"/>
      <use xlink:href="#DejaVuSans-67" x="395.703125"/>
      <use xlink:href="#DejaVuSans-20" x="459.179688"/>
      <use xlink:href="#DejaVuSans-70" x="490.966797"/>
      <use xlink:href="#DejaVuSans-65" x="554.443359"/>
      <use xlink:href="#DejaVuSans-72" x="615.966797"/>
      <use xlink:href="#DejaVuSans-66" x="657.080078"/>
      <use xlink:href="#DejaVuSans-6f" x="692.285156"/>
      <use xlink:href="#DejaVuSans-72" x="753.466797"/>
      <use xlink:href="#DejaVuSans-6d" x="792.830078"/>
      <use xlink:href="#DejaVuSans-61" x="890.242188"/>
      <use xlink:href="#DejaVuSans-6e" x="951.521484"/>
      <use xlink:href="#DejaVuSans-63" x="1014.900391"/>
      <use xlink:href="#DejaVuSans-65" x="1069.880859"/>
      <use xlink:href="#DejaVuSans-20" x="1131.404297"/>
      <use xlink:href="#DejaVuSans-28" x="1163.191406"/>
      <use xlink:href="#DejaVuSans-72" x="1202.205078"/>
      <use xlink:href="#DejaVuSans-b1" x="1243.318359"/>
      <use xlink:href="#DejaVuSans-20" x="1327.107422"/>
      <use xlink:href="#DejaVuSans-73" x="1358.894531"/>
      <use xlink:href="#DejaVuSans-65" x="1410.994141"/>
      <use xlink:href="#DejaVuSans-6d" x="1472.517578"/>
      <use xlink:href="#DejaVuSans-29" x="1569.929688"/>
     </g>
    </g>
   </g>
   <g id="line2d_13">
    <path d="M 166.271647 174.84375 
L 166.271647 10.8 
" clip-path="url(#pe4831b7f31)" style="fill: none; stroke-dasharray: 5.55,2.4; stroke-dashoffset: 0; stroke: #e6e6e6; stroke-width: 1.5"/>
   </g>
   <g id="line2d_14">
    <path d="M 53.74375 162.500685 
L 277.2 162.500685 
" clip-path="url(#pe4831b7f31)" style="fill: none; stroke-dasharray: 5.55,2.4; stroke-dashoffset: 0; stroke: #e6e6e6; stroke-width: 1.5"/>
   </g>
   <g id="line2d_15">
    <path d="M 63.900852 136.908649 
L 65.500396 131.336851 
L 67.09994 133.654177 
L 68.699483 130.485199 
L 70.299027 132.058498 
L 71.898571 132.735067 
L 75.097658 131.940328 
L 76.697202 130.839734 
L 78.296745 127.937586 
L 79.896289 131.60606 
L 81.495833 131.222331 
L 83.095376 125.645925 
L 84.69492 127.224483 
L 86.294464 125.154075 
L 87.894007 129.223353 
L 89.493551 130.181637 
L 91.093095 128.321391 
L 92.692638 133.386053 
L 94.292182 128.268029 
L 95.891726 133.616477 
L 97.491269 132.523787 
L 99.090813 133.614245 
L 100.690357 133.022835 
L 102.2899 132.067924 
L 103.889444 135.889388 
L 105.488988 134.384599 
L 107.088531 138.35316 
L 108.688075 135.314449 
L 110.287619 134.588718 
L 111.887162 130.275052 
L 113.486706 134.241614 
L 115.08625 128.93863 
L 116.685793 129.282639 
L 118.285337 127.566867 
L 119.884881 126.489845 
L 121.484424 120.00554 
L 123.083968 121.543758 
L 124.683512 112.925282 
L 126.283055 114.513089 
L 127.882599 110.166971 
L 129.482143 108.950156 
L 131.081686 105.557552 
L 132.68123 103.340803 
L 134.280774 97.56246 
L 135.880317 97.211736 
L 137.479861 97.038236 
L 139.079405 97.708089 
L 140.678948 93.257495 
L 142.278492 89.140465 
L 143.878036 99.012444 
L 145.477579 92.533983 
L 147.077123 89.497544 
L 148.676667 90.730166 
L 150.27621 94.396097 
L 151.875754 93.45462 
L 153.475298 90.996687 
L 155.074841 92.457476 
L 156.674385 95.124105 
L 158.273929 93.37128 
L 159.873472 96.572656 
L 161.473016 96.056296 
L 163.07256 97.650721 
L 164.672103 98.002032 
L 166.271647 80.101964 
L 167.87119 65.959056 
L 169.470734 54.431003 
L 171.070278 44.82352 
L 172.669821 48.471248 
L 174.269365 56.088644 
L 175.868909 65.867221 
L 177.468452 63.906815 
L 180.66754 81.412364 
L 182.267083 87.052803 
L 183.866627 96.339618 
L 185.466171 107.59592 
L 187.065714 112.160533 
L 188.665258 108.031619 
L 190.264802 111.879253 
L 191.864345 114.02464 
L 193.463889 109.114157 
L 195.063433 110.867206 
L 196.662976 115.022446 
L 198.26252 110.779071 
L 199.862064 109.995724 
L 201.461607 105.330393 
L 203.061151 106.406555 
L 204.660695 105.813043 
L 206.260238 113.232772 
L 207.859782 115.547002 
L 209.459326 111.31642 
L 211.058869 112.008626 
L 212.658413 111.537005 
L 214.257957 110.281303 
L 215.8575 112.897667 
L 217.457044 111.164244 
L 219.056588 110.164065 
L 220.656131 111.726347 
L 222.255675 110.672405 
L 223.855219 114.849762 
L 225.454762 113.223314 
L 227.054306 118.048259 
L 228.65385 114.667347 
L 230.253393 111.597194 
L 231.852937 114.476486 
L 233.452481 112.623014 
L 235.052024 114.181302 
L 236.651568 116.409353 
L 238.251112 122.198927 
L 239.850655 123.531597 
L 241.450199 125.618 
L 243.049743 125.901177 
L 244.649286 125.409302 
L 246.24883 130.432117 
L 247.848374 130.601571 
L 251.047461 129.462085 
L 252.647005 132.504334 
L 254.246548 133.025712 
L 255.846092 139.54993 
L 257.445636 136.085399 
L 259.045179 136.808427 
L 260.644723 143.229181 
L 262.244267 143.465923 
L 263.84381 146.587583 
L 265.443354 146.105732 
L 267.042898 144.96519 
L 267.042898 144.96519 
" clip-path="url(#pe4831b7f31)" style="fill: none; stroke: #1f77b4; stroke-width: 1.8; stroke-linecap: square"/>
   </g>
   <g id="line2d_16">
    <path d="M 63.900852 159.96664 
L 65.500396 164.423104 
L 67.09994 162.57707 
L 68.699483 162.683838 
L 70.299027 163.868811 
L 71.898571 159.665591 
L 73.498114 161.705354 
L 75.097658 161.537435 
L 76.697202 157.679394 
L 78.296745 158.628997 
L 79.896289 155.649608 
L 81.495833 158.313466 
L 83.095376 160.002824 
L 84.69492 154.912665 
L 86.294464 154.829556 
L 89.493551 156.812863 
L 91.093095 157.456164 
L 92.692638 157.270729 
L 94.292182 156.326519 
L 95.891726 149.477507 
L 97.491269 154.863182 
L 99.090813 153.475142 
L 100.690357 154.60035 
L 102.2899 153.83646 
L 103.889444 156.906558 
L 105.488988 158.411238 
L 107.088531 160.407897 
L 108.688075 159.225853 
L 110.287619 160.1959 
L 111.887162 158.155751 
L 113.486706 160.934912 
L 115.08625 159.7435 
L 116.685793 162.026058 
L 118.285337 160.105188 
L 119.884881 157.987115 
L 121.484424 163.641149 
L 123.083968 161.183702 
L 124.683512 162.083068 
L 126.283055 160.371787 
L 127.882599 155.929009 
L 129.482143 157.010613 
L 131.081686 156.168332 
L 132.68123 156.439311 
L 134.280774 158.804294 
L 135.880317 156.164511 
L 137.479861 155.136582 
L 139.079405 153.055417 
L 140.678948 153.554341 
L 142.278492 151.407732 
L 143.878036 150.714554 
L 145.477579 152.358027 
L 147.077123 152.051826 
L 148.676667 153.862544 
L 150.27621 148.429337 
L 151.875754 153.184935 
L 153.475298 153.782955 
L 155.074841 148.83932 
L 156.674385 149.535096 
L 159.873472 142.1194 
L 161.473016 147.995699 
L 163.07256 140.22345 
L 164.672103 139.564264 
L 166.271647 126.648957 
L 167.87119 121.3449 
L 169.470734 110.547004 
L 171.070278 103.555039 
L 172.669821 101.097151 
L 174.269365 100.111878 
L 175.868909 103.211125 
L 177.468452 110.593208 
L 179.067996 115.864249 
L 180.66754 117.505528 
L 182.267083 120.229551 
L 183.866627 124.042476 
L 185.466171 126.207432 
L 187.065714 129.188953 
L 188.665258 131.279174 
L 190.264802 136.001555 
L 191.864345 138.275013 
L 193.463889 137.296621 
L 195.063433 140.215786 
L 196.662976 140.692543 
L 198.26252 141.698656 
L 199.862064 143.263932 
L 201.461607 144.38228 
L 203.061151 147.653159 
L 204.660695 144.551869 
L 206.260238 149.849635 
L 207.859782 148.616675 
L 209.459326 146.766392 
L 211.058869 148.845894 
L 212.658413 149.604792 
L 214.257957 146.834125 
L 215.8575 148.189537 
L 217.457044 150.941891 
L 219.056588 144.028514 
L 220.656131 149.231629 
L 222.255675 148.959765 
L 223.855219 154.062406 
L 225.454762 157.253109 
L 227.054306 159.84477 
L 228.65385 159.439152 
L 230.253393 160.704384 
L 231.852937 160.841112 
L 233.452481 159.959958 
L 235.052024 161.113329 
L 236.651568 162.468095 
L 238.251112 159.035149 
L 239.850655 158.229427 
L 241.450199 166.326282 
L 243.049743 159.915757 
L 244.649286 163.534426 
L 246.24883 166.733222 
L 247.848374 162.709813 
L 249.447917 160.266982 
L 251.047461 162.051178 
L 252.647005 160.567698 
L 254.246548 160.742696 
L 255.846092 161.306354 
L 257.445636 162.532269 
L 259.045179 162.48691 
L 260.644723 160.464206 
L 262.244267 159.605 
L 263.84381 159.161881 
L 265.443354 161.223452 
L 267.042898 158.85236 
L 267.042898 158.85236 
" clip-path="url(#pe4831b7f31)" style="fill: none; stroke: #aec7e8; stroke-width: 1.8; stroke-linecap: square"/>
   </g>
   <g id="line2d_17">
    <path d="M 63.900852 159.121478 
L 65.500396 157.846998 
L 67.09994 157.843127 
L 68.699483 160.848512 
L 70.299027 159.364882 
L 71.898571 157.003062 
L 73.498114 157.449572 
L 75.097658 158.82653 
L 76.697202 160.85327 
L 78.296745 156.821275 
L 79.896289 158.147877 
L 81.495833 158.1188 
L 83.095376 161.079423 
L 86.294464 155.186427 
L 87.894007 154.469113 
L 89.493551 158.117908 
L 92.692638 161.460822 
L 94.292182 161.861041 
L 95.891726 160.190528 
L 97.491269 160.372873 
L 99.090813 156.036409 
L 100.690357 159.324833 
L 102.2899 154.447981 
L 103.889444 158.736174 
L 105.488988 155.529188 
L 107.088531 156.612145 
L 108.688075 159.937992 
L 111.887162 152.553382 
L 113.486706 150.711214 
L 115.08625 152.346516 
L 116.685793 152.517288 
L 118.285337 156.200035 
L 119.884881 152.210343 
L 121.484424 152.571678 
L 123.083968 153.408129 
L 124.683512 148.781992 
L 126.283055 150.4045 
L 127.882599 148.124157 
L 129.482143 154.295012 
L 131.081686 149.515473 
L 132.68123 151.586718 
L 134.280774 148.450801 
L 135.880317 144.243433 
L 137.479861 148.653422 
L 139.079405 143.633601 
L 140.678948 142.581492 
L 142.278492 140.605258 
L 145.477579 137.214154 
L 147.077123 136.640639 
L 148.676667 133.057775 
L 150.27621 130.955009 
L 151.875754 129.338139 
L 153.475298 123.823798 
L 155.074841 119.040907 
L 156.674385 117.64662 
L 158.273929 113.154976 
L 159.873472 112.031589 
L 161.473016 109.335826 
L 163.07256 109.791488 
L 164.672103 105.900261 
L 166.271647 99.10435 
L 167.87119 98.565174 
L 169.470734 98.257931 
L 171.070278 90.628382 
L 172.669821 88.551969 
L 174.269365 83.608349 
L 175.868909 82.341555 
L 177.468452 83.09965 
L 179.067996 84.660692 
L 180.66754 83.775673 
L 182.267083 90.828001 
L 183.866627 86.461925 
L 185.466171 93.385032 
L 187.065714 91.154625 
L 188.665258 95.416329 
L 190.264802 95.276469 
L 193.463889 96.989861 
L 195.063433 98.612838 
L 196.662976 104.985019 
L 198.26252 104.860303 
L 199.862064 107.960799 
L 201.461607 110.304982 
L 203.061151 110.615772 
L 204.660695 111.495682 
L 206.260238 121.651883 
L 207.859782 118.282699 
L 209.459326 125.042521 
L 211.058869 121.000924 
L 214.257957 126.016619 
L 215.8575 130.529298 
L 217.457044 137.49039 
L 219.056588 132.82524 
L 220.656131 136.624689 
L 222.255675 141.337037 
L 223.855219 138.173902 
L 225.454762 144.892063 
L 227.054306 145.163456 
L 228.65385 147.863241 
L 230.253393 144.414273 
L 231.852937 148.409533 
L 233.452481 149.028191 
L 235.052024 153.352817 
L 236.651568 154.007625 
L 238.251112 152.038538 
L 239.850655 154.312006 
L 241.450199 155.668602 
L 243.049743 155.463665 
L 244.649286 159.057581 
L 246.24883 156.481718 
L 247.848374 155.631309 
L 249.447917 152.196162 
L 251.047461 159.531013 
L 252.647005 152.954984 
L 254.246548 153.080802 
L 255.846092 158.348802 
L 257.445636 157.637106 
L 259.045179 157.442555 
L 260.644723 156.217575 
L 262.244267 157.511184 
L 263.84381 156.76408 
L 265.443354 158.65014 
L 267.042898 153.625753 
L 267.042898 153.625753 
" clip-path="url(#pe4831b7f31)" style="fill: none; stroke: #ff7f0e; stroke-width: 1.8; stroke-linecap: square"/>
   </g>
   <g id="line2d_18">
    <path d="M 63.900852 158.173297 
L 65.500396 158.821945 
L 67.09994 159.257649 
L 70.299027 155.246012 
L 71.898571 155.759974 
L 73.498114 154.645423 
L 75.097658 158.834832 
L 76.697202 157.778656 
L 78.296745 154.646192 
L 79.896289 155.219438 
L 81.495833 152.809454 
L 83.095376 154.24519 
L 84.69492 151.217578 
L 86.294464 148.836828 
L 87.894007 151.348116 
L 89.493551 151.580377 
L 91.093095 153.351411 
L 92.692638 158.908854 
L 94.292182 153.146253 
L 95.891726 153.248613 
L 97.491269 152.360344 
L 99.090813 151.202096 
L 100.690357 153.620333 
L 102.2899 149.278096 
L 103.889444 154.998956 
L 105.488988 151.946413 
L 107.088531 150.289936 
L 108.688075 149.086839 
L 110.287619 155.834241 
L 111.887162 153.853032 
L 113.486706 154.052175 
L 115.08625 153.805398 
L 116.685793 154.441241 
L 118.285337 155.754457 
L 119.884881 152.257088 
L 121.484424 153.471219 
L 123.083968 149.948427 
L 124.683512 151.449402 
L 126.283055 148.556614 
L 127.882599 144.948682 
L 129.482143 149.521329 
L 131.081686 146.377275 
L 132.68123 147.69208 
L 134.280774 144.825933 
L 135.880317 142.408597 
L 137.479861 143.711621 
L 139.079405 141.604916 
L 140.678948 142.737315 
L 142.278492 144.483451 
L 143.878036 135.566528 
L 145.477579 134.824386 
L 147.077123 132.633967 
L 148.676667 130.69797 
L 150.27621 127.642713 
L 151.875754 131.937391 
L 153.475298 126.792178 
L 155.074841 120.620188 
L 156.674385 124.05098 
L 158.273929 115.951211 
L 159.873472 117.07162 
L 161.473016 117.291785 
L 163.07256 110.631794 
L 164.672103 110.811505 
L 166.271647 103.95074 
L 167.87119 100.814903 
L 171.070278 85.219383 
L 172.669821 83.119667 
L 174.269365 77.568922 
L 175.868909 74.921718 
L 177.468452 71.186571 
L 179.067996 71.851695 
L 180.66754 73.371423 
L 182.267083 77.600303 
L 183.866627 82.469007 
L 185.466171 82.602119 
L 187.065714 84.199935 
L 188.665258 88.028067 
L 191.864345 95.292043 
L 193.463889 102.537234 
L 195.063433 101.5183 
L 196.662976 104.886289 
L 198.26252 109.719262 
L 199.862064 113.337606 
L 203.061151 113.423346 
L 204.660695 118.206099 
L 206.260238 123.503556 
L 207.859782 122.080462 
L 209.459326 123.703305 
L 211.058869 123.383353 
L 212.658413 126.173192 
L 214.257957 124.49696 
L 215.8575 126.769341 
L 217.457044 132.508485 
L 219.056588 129.618745 
L 220.656131 131.392687 
L 222.255675 132.681078 
L 223.855219 135.542551 
L 225.454762 137.584784 
L 227.054306 135.744035 
L 228.65385 136.766294 
L 230.253393 135.570917 
L 231.852937 143.008179 
L 233.452481 139.067678 
L 235.052024 141.635472 
L 236.651568 147.27704 
L 238.251112 143.179764 
L 239.850655 147.017498 
L 241.450199 145.980214 
L 243.049743 146.140745 
L 244.649286 148.710711 
L 246.24883 149.520297 
L 247.848374 153.224002 
L 249.447917 145.01299 
L 251.047461 148.156704 
L 252.647005 148.281511 
L 254.246548 146.696754 
L 255.846092 150.19109 
L 257.445636 152.94459 
L 259.045179 149.164542 
L 260.644723 146.452035 
L 262.244267 147.951093 
L 263.84381 148.957625 
L 265.443354 147.173806 
L 267.042898 151.546386 
L 267.042898 151.546386 
" clip-path="url(#pe4831b7f31)" style="fill: none; stroke: #ffbb78; stroke-width: 1.8; stroke-linecap: square"/>
   </g>
   <g id="line2d_19">
    <path d="M 63.900852 142.193643 
L 65.500396 142.252674 
L 67.09994 139.042492 
L 68.699483 135.212344 
L 70.299027 135.599135 
L 71.898571 135.5633 
L 73.498114 136.897949 
L 75.097658 131.905933 
L 76.697202 139.18025 
L 78.296745 132.753926 
L 79.896289 131.86508 
L 81.495833 132.797991 
L 83.095376 129.796123 
L 84.69492 125.701799 
L 86.294464 125.117411 
L 87.894007 124.699006 
L 89.493551 125.391481 
L 91.093095 122.241687 
L 92.692638 125.801613 
L 94.292182 122.321238 
L 95.891726 115.370269 
L 97.491269 116.455315 
L 99.090813 115.331472 
L 100.690357 119.235278 
L 102.2899 113.712099 
L 103.889444 118.774364 
L 105.488988 116.009277 
L 107.088531 115.109436 
L 108.688075 112.314871 
L 110.287619 112.120853 
L 111.887162 110.987521 
L 113.486706 110.984919 
L 115.08625 113.076226 
L 116.685793 109.912151 
L 118.285337 105.89044 
L 119.884881 106.049816 
L 121.484424 104.778652 
L 123.083968 97.899115 
L 124.683512 95.576184 
L 126.283055 89.94124 
L 127.882599 86.941794 
L 129.482143 85.268202 
L 131.081686 87.066819 
L 132.68123 82.642215 
L 134.280774 83.677462 
L 135.880317 77.637318 
L 137.479861 78.077003 
L 139.079405 76.355666 
L 140.678948 72.746279 
L 142.278492 72.570652 
L 143.878036 69.392504 
L 145.477579 65.34765 
L 147.077123 58.780807 
L 148.676667 56.168173 
L 150.27621 54.37424 
L 151.875754 56.14066 
L 153.475298 45.965182 
L 155.074841 40.697669 
L 156.674385 41.237373 
L 158.273929 30.820603 
L 159.873472 30.338521 
L 161.473016 23.979358 
L 163.07256 22.098471 
L 164.672103 22.972627 
L 166.271647 20.114304 
L 167.87119 25.444965 
L 169.470734 27.266178 
L 171.070278 22.494808 
L 172.669821 23.534228 
L 174.269365 26.760534 
L 175.868909 25.634581 
L 177.468452 21.234292 
L 179.067996 26.429638 
L 180.66754 30.745588 
L 182.267083 31.219824 
L 183.866627 34.938689 
L 185.466171 39.036114 
L 187.065714 41.746045 
L 188.665258 41.12323 
L 190.264802 45.629969 
L 193.463889 49.896626 
L 195.063433 49.960777 
L 196.662976 54.501021 
L 198.26252 54.803777 
L 199.862064 61.325429 
L 201.461607 62.781113 
L 203.061151 61.5904 
L 204.660695 68.239522 
L 206.260238 65.84081 
L 207.859782 71.658703 
L 209.459326 71.857964 
L 211.058869 76.993689 
L 212.658413 80.660538 
L 214.257957 76.861902 
L 215.8575 80.528769 
L 217.457044 87.841532 
L 219.056588 86.980555 
L 220.656131 92.543162 
L 222.255675 94.09374 
L 223.855219 93.233434 
L 225.454762 96.570377 
L 227.054306 97.741271 
L 228.65385 101.514485 
L 230.253393 101.980347 
L 231.852937 107.961919 
L 233.452481 107.864303 
L 235.052024 106.93767 
L 236.651568 114.636041 
L 238.251112 117.210961 
L 239.850655 120.613354 
L 241.450199 119.184744 
L 243.049743 118.708654 
L 244.649286 126.224588 
L 246.24883 127.905559 
L 247.848374 130.045922 
L 249.447917 125.690664 
L 251.047461 132.628166 
L 252.647005 127.228428 
L 254.246548 130.942007 
L 255.846092 128.354725 
L 257.445636 128.090323 
L 259.045179 130.189095 
L 260.644723 130.034902 
L 262.244267 135.748733 
L 263.84381 135.867751 
L 265.443354 135.58367 
L 267.042898 136.201351 
L 267.042898 136.201351 
" clip-path="url(#pe4831b7f31)" style="fill: none; stroke: #2ca02c; stroke-width: 1.8; stroke-linecap: square"/>
   </g>
   <g id="patch_3">
    <path d="M 53.74375 174.84375 
L 53.74375 10.8 
" style="fill: none; stroke: #000000; stroke-width: 0.8; stroke-linejoin: miter; stroke-linecap: square"/>
   </g>
   <g id="patch_4">
    <path d="M 277.2 174.84375 
L 277.2 10.8 
" style="fill: none; stroke: #000000; stroke-width: 0.8; stroke-linejoin: miter; stroke-linecap: square"/>
   </g>
   <g id="patch_5">
    <path d="M 53.74375 174.84375 
L 277.2 174.84375 
" style="fill: none; stroke: #000000; stroke-width: 0.8; stroke-linejoin: miter; stroke-linecap: square"/>
   </g>
   <g id="patch_6">
    <path d="M 53.74375 10.8 
L 277.2 10.8 
" style="fill: none; stroke: #000000; stroke-width: 0.8; stroke-linejoin: miter; stroke-linecap: square"/>
   </g>
   <g id="legend_1">
    <g id="line2d_20">
     <path d="M 62.74375 23.898438 
L 72.74375 23.898438 
L 82.74375 23.898438 
" style="fill: none; stroke: #1f77b4; stroke-width: 1.8; stroke-linecap: square"/>
    </g>
    <g id="text_15">
     <!-- spectral -->
     <g transform="translate(90.74375 27.398438) scale(0.1 -0.1)">
      <defs>
       <path id="DejaVuSans-74" d="M 1172 4494 
L 1172 3500 
L 2356 3500 
L 2356 3053 
L 1172 3053 
L 1172 1153 
Q 1172 725 1289 603 
Q 1406 481 1766 481 
L 2356 481 
L 2356 0 
L 1766 0 
Q 1100 0 847 248 
Q 594 497 594 1153 
L 594 3053 
L 172 3053 
L 172 3500 
L 594 3500 
L 594 4494 
L 1172 4494 
z
" transform="scale(0.015625)"/>
      </defs>
      <use xlink:href="#DejaVuSans-73"/>
      <use xlink:href="#DejaVuSans-70" x="52.099609"/>
      <use xlink:href="#DejaVuSans-65" x="115.576172"/>
      <use xlink:href="#DejaVuSans-63" x="177.099609"/>
      <use xlink:href="#DejaVuSans-74" x="232.080078"/>
      <use xlink:href="#DejaVuSans-72" x="271.289062"/>
      <use xlink:href="#DejaVuSans-61" x="312.402344"/>
      <use xlink:href="#DejaVuSans-6c" x="373.681641"/>
     </g>
    </g>
    <g id="line2d_21">
     <path d="M 62.74375 38.576563 
L 72.74375 38.576563 
L 82.74375 38.576563 
" style="fill: none; stroke: #aec7e8; stroke-width: 1.8; stroke-linecap: square"/>
    </g>
    <g id="text_16">
     <!-- phonetic -->
     <g transform="translate(90.74375 42.076563) scale(0.1 -0.1)">
      <defs>
       <path id="DejaVuSans-68" d="M 3513 2113 
L 3513 0 
L 2938 0 
L 2938 2094 
Q 2938 2591 2744 2837 
Q 2550 3084 2163 3084 
Q 1697 3084 1428 2787 
Q 1159 2491 1159 1978 
L 1159 0 
L 581 0 
L 581 4863 
L 1159 4863 
L 1159 2956 
Q 1366 3272 1645 3428 
Q 1925 3584 2291 3584 
Q 2894 3584 3203 3211 
Q 3513 2838 3513 2113 
z
" transform="scale(0.015625)"/>
      </defs>
      <use xlink:href="#DejaVuSans-70"/>
      <use xlink:href="#DejaVuSans-68" x="63.476562"/>
      <use xlink:href="#DejaVuSans-6f" x="126.855469"/>
      <use xlink:href="#DejaVuSans-6e" x="188.037109"/>
      <use xlink:href="#DejaVuSans-65" x="251.416016"/>
      <use xlink:href="#DejaVuSans-74" x="312.939453"/>
      <use xlink:href="#DejaVuSans-69" x="352.148438"/>
      <use xlink:href="#DejaVuSans-63" x="379.931641"/>
     </g>
    </g>
    <g id="line2d_22">
     <path d="M 62.74375 53.254688 
L 72.74375 53.254688 
L 82.74375 53.254688 
" style="fill: none; stroke: #ff7f0e; stroke-width: 1.8; stroke-linecap: square"/>
    </g>
    <g id="text_17">
     <!-- syntactic -->
     <g transform="translate(90.74375 56.754688) scale(0.1 -0.1)">
      <defs>
       <path id="DejaVuSans-79" d="M 2059 -325 
Q 1816 -950 1584 -1140 
Q 1353 -1331 966 -1331 
L 506 -1331 
L 506 -850 
L 844 -850 
Q 1081 -850 1212 -737 
Q 1344 -625 1503 -206 
L 1606 56 
L 191 3500 
L 800 3500 
L 1894 763 
L 2988 3500 
L 3597 3500 
L 2059 -325 
z
" transform="scale(0.015625)"/>
      </defs>
      <use xlink:href="#DejaVuSans-73"/>
      <use xlink:href="#DejaVuSans-79" x="52.099609"/>
      <use xlink:href="#DejaVuSans-6e" x="111.279297"/>
      <use xlink:href="#DejaVuSans-74" x="174.658203"/>
      <use xlink:href="#DejaVuSans-61" x="213.867188"/>
      <use xlink:href="#DejaVuSans-63" x="275.146484"/>
      <use xlink:href="#DejaVuSans-74" x="330.126953"/>
      <use xlink:href="#DejaVuSans-69" x="369.335938"/>
      <use xlink:href="#DejaVuSans-63" x="397.119141"/>
     </g>
    </g>
    <g id="line2d_23">
     <path d="M 62.74375 67.932813 
L 72.74375 67.932813 
L 82.74375 67.932813 
" style="fill: none; stroke: #ffbb78; stroke-width: 1.8; stroke-linecap: square"/>
    </g>
    <g id="text_18">
     <!-- en.core.web.lg -->
     <g transform="translate(90.74375 71.432813) scale(0.1 -0.1)">
      <defs>
       <path id="DejaVuSans-77" d="M 269 3500 
L 844 3500 
L 1563 769 
L 2278 3500 
L 2956 3500 
L 3675 769 
L 4391 3500 
L 4966 3500 
L 4050 0 
L 3372 0 
L 2619 2869 
L 1863 0 
L 1184 0 
L 269 3500 
z
" transform="scale(0.015625)"/>
       <path id="DejaVuSans-62" d="M 3116 1747 
Q 3116 2381 2855 2742 
Q 2594 3103 2138 3103 
Q 1681 3103 1420 2742 
Q 1159 2381 1159 1747 
Q 1159 1113 1420 752 
Q 1681 391 2138 391 
Q 2594 391 2855 752 
Q 3116 1113 3116 1747 
z
M 1159 2969 
Q 1341 3281 1617 3432 
Q 1894 3584 2278 3584 
Q 2916 3584 3314 3078 
Q 3713 2572 3713 1747 
Q 3713 922 3314 415 
Q 2916 -91 2278 -91 
Q 1894 -91 1617 61 
Q 1341 213 1159 525 
L 1159 0 
L 581 0 
L 581 4863 
L 1159 4863 
L 1159 2969 
z
" transform="scale(0.015625)"/>
      </defs>
      <use xlink:href="#DejaVuSans-65"/>
      <use xlink:href="#DejaVuSans-6e" x="61.523438"/>
      <use xlink:href="#DejaVuSans-2e" x="124.902344"/>
      <use xlink:href="#DejaVuSans-63" x="156.689453"/>
      <use xlink:href="#DejaVuSans-6f" x="211.669922"/>
      <use xlink:href="#DejaVuSans-72" x="272.851562"/>
      <use xlink:href="#DejaVuSans-65" x="311.714844"/>
      <use xlink:href="#DejaVuSans-2e" x="373.238281"/>
      <use xlink:href="#DejaVuSans-77" x="405.025391"/>
      <use xlink:href="#DejaVuSans-65" x="486.8125"/>
      <use xlink:href="#DejaVuSans-62" x="548.335938"/>
      <use xlink:href="#DejaVuSans-2e" x="611.8125"/>
      <use xlink:href="#DejaVuSans-6c" x="643.599609"/>
      <use xlink:href="#DejaVuSans-67" x="671.382812"/>
     </g>
    </g>
    <g id="line2d_24">
     <path d="M 62.74375 82.610938 
L 72.74375 82.610938 
L 82.74375 82.610938 
" style="fill: none; stroke: #2ca02c; stroke-width: 1.8; stroke-linecap: square"/>
    </g>
    <g id="text_19">
     <!-- gpt2.xl.l24 -->
     <g transform="translate(90.74375 86.110938) scale(0.1 -0.1)">
      <defs>
       <path id="DejaVuSans-78" d="M 3513 3500 
L 2247 1797 
L 3578 0 
L 2900 0 
L 1881 1375 
L 863 0 
L 184 0 
L 1544 1831 
L 300 3500 
L 978 3500 
L 1906 2253 
L 2834 3500 
L 3513 3500 
z
" transform="scale(0.015625)"/>
      </defs>
      <use xlink:href="#DejaVuSans-67"/>
      <use xlink:href="#DejaVuSans-70" x="63.476562"/>
      <use xlink:href="#DejaVuSans-74" x="126.953125"/>
      <use xlink:href="#DejaVuSans-32" x="166.162109"/>
      <use xlink:href="#DejaVuSans-2e" x="229.785156"/>
      <use xlink:href="#DejaVuSans-78" x="261.572266"/>
      <use xlink:href="#DejaVuSans-6c" x="320.751953"/>
      <use xlink:href="#DejaVuSans-2e" x="348.535156"/>
      <use xlink:href="#DejaVuSans-6c" x="380.322266"/>
      <use xlink:href="#DejaVuSans-32" x="408.105469"/>
      <use xlink:href="#DejaVuSans-34" x="471.728516"/>
     </g>
    </g>
   </g>
  </g>
 </g>
 <defs>
  <clipPath id="pe4831b7f31">
   <rect x="53.74375" y="10.8" width="223.45625" height="164.04375"/>
  </clipPath>
 </defs>
</svg>
